{
.appVersion = "3151";
.formatVersion = 3;
DisplayStrings = (
"!!",
"",
")(*&",
"%",
"*",
"",
"//",
"#",
"@",
"&",
$,
Q
);
customParameters = (
{
name = vendorID;
value = XXXX;
},
{
name = panose;
value = (
0,
0,
0,
0,
0,
0,
0,
0,
0,
0
);
},
{
name = unicodeRanges;
value = (
0,
1,
2,
31
);
},
{
name = codePageRanges;
value = (
"1252",
"1250"
);
},
{
name = fsType;
value = (
);
},
{
name = glyphOrder;
value = (
.notdef,
null,
controlLF,
controlCR,
space,
exclam,
quotedbl,
quotesingle,
parenleft,
parenright,
comma,
hyphen,
period,
zero,
one,
two,
three,
four,
five,
six,
seven,
eight,
nine,
colon,
semicolon,
question,
A,
B,
C,
D,
E,
F,
G,
H,
I,
J,
K,
L,
M,
N,
O,
P,
Q,
R,
S,
T,
U,
V,
W,
X,
Y,
Z,
underscore,
nonbreakingspace,
softhyphen
);
}
);
date = "2021-08-02 16:02:17 +0000";
familyName = Spel;
fontMaster = (
{
customParameters = (
{
name = typoAscender;
value = 881;
},
{
name = typoDescender;
value = -214;
},
{
name = typoLineGap;
value = 0;
},
{
name = winAscent;
value = 805;
},
{
name = winDescent;
value = 230;
},
{
name = hheaAscender;
value = 881;
},
{
name = hheaDescender;
value = -214;
},
{
name = strikeoutPosition;
value = 258;
},
{
name = strikeoutSize;
value = 49;
}
);
id = m01;
metricValues = (
{
pos = 881;
},
{
pos = 674;
},
{
pos = 497;
},
{
},
{
pos = -214;
},
{
}
);
name = Regular;
}
);
glyphs = (
{
glyphname = exclam;
layers = (
{
layerId = m01;
shapes = (
{
closed = 1;
nodes = (
(274,263,o),
(291,373,o),
(294,391,cs),
(301,427,o),
(339,642,o),
(344,679,cs),
(346,689,o),
(359,731,o),
(357,741,cs),
(355,747,o),
(358,754,o),
(359,760,c),
(338,767,o),
(316,773,o),
(294,779,cs),
(290,780,o),
(278,782,o),
(275,780,cs),
(238,754,o),
(39,611,o),
(5,582,c),
(4,569,o),
(-3,486,o),
(-5,473,cs),
(-5,471,o),
(-6,466,o),
(-4,465,cs),
(7,458,o),
(57,449,o),
(69,447,cs),
(79,445,o),
(95,448,o),
(96,438,cs),
(97,401,o),
(102,197,o),
(106,161,c),
(127,171,o),
(250,235,o),
(271,245,c)
);
},
{
closed = 1;
nodes = (
(175,-1,o),
(237,11,o),
(298,24,c),
(301,30,o),
(301,36,o),
(302,42,cs),
(303,47,o),
(300,47,o),
(296,46,cs),
(276,42,o),
(257,36,o),
(237,30,c),
(239,43,o),
(252,123,o),
(254,136,c),
(231,129,o),
(100,82,o),
(77,74,cs),
(73,72,o),
(74,64,o),
(74,60,cs),
(74,55,o),
(75,53,o),
(79,55,c),
(90,58,o),
(103,68,o),
(104,56,cs),
(104,48,o),
(108,-3,o),
(109,-12,cs),
(109,-17,o),
(110,-18,o),
(114,-17,cs)
);
}
);
width = 354;
}
);
note = exclam;
unicode = 33;
},
{
glyphname = quotedbl;
layers = (
{
layerId = m01;
shapes = (
{
closed = 1;
nodes = (
(594,429,o),
(596,433,o),
(597,437,cs),
(614,535,o),
(626,635,o),
(633,735,cs),
(633,738,o),
(626,736,o),
(623,735,cs),
(535,707,o),
(448,679,o),
(361,647,cs),
(353,644,o),
(357,627,o),
(358,618,cs),
(358,614,o),
(358,611,o),
(362,613,cs),
(366,615,o),
(392,625,o),
(397,627,c),
(400,617,o),
(414,582,o),
(422,576,cs),
(423,575,o),
(430,573,o),
(431,572,c),
(430,572,o),
(432,569,o),
(432,569,c),
(433,556,o),
(434,542,o),
(435,529,cs),
(435,524,o),
(437,506,o),
(435,501,cs),
(412,455,o),
(380,412,o),
(356,367,cs),
(353,361,o),
(343,359,o),
(344,352,cs),
(345,343,o),
(346,334,o),
(348,325,c),
(430,358,o),
(513,387,o),
(591,428,c)
);
},
{
closed = 1;
nodes = (
(243,409,o),
(256,419,o),
(268,430,c),
(277,478,o),
(304,664,o),
(293,711,cs),
(291,721,o),
(266,728,o),
(256,732,cs),
(253,733,o),
(248,732,o),
(245,730,cs),
(163,682,o),
(86,623,o),
(8,568,c),
(14,549,o),
(21,529,o),
(27,510,c),
(48,523,o),
(69,535,o),
(90,547,c),
(91,549,o),
(92,551,o),
(94,552,c),
(100,541,o),
(109,531,o),
(120,524,cs),
(123,522,o),
(125,518,o),
(126,514,cs),
(129,492,o),
(132,469,o),
(136,447,c),
(136,443,o),
(133,428,o),
(132,424,c),
(113,393,o),
(87,365,o),
(65,335,cs),
(57,325,o),
(56,310,o),
(66,303,cs),
(68,302,o),
(71,298,o),
(73,299,cs),
(92,312,o),
(210,387,o),
(229,400,cs)
);
},
{
closed = 1;
nodes = (
(595,671,o),
(594,670,o),
(594,670,c),
(594,670,o),
(594,671,o),
(594,671,c)
);
}
);
width = 641;
}
);
note = quotedbl;
unicode = (34,171,187,8220,8221,8222);
},
{
glyphname = quotesingle;
layers = (
{
layerId = m01;
shapes = (
{
closed = 1;
nodes = (
(184,329,o),
(237,375,o),
(245,384,cs),
(261,401,o),
(333,506,o),
(346,525,c),
(334,596,o),
(321,667,o),
(309,738,c),
(295,733,o),
(216,710,o),
(202,705,cs),
(176,695,o),
(21,628,o),
(-5,619,c),
(-4,605,o),
(-4,591,o),
(-3,577,c),
(17,574,o),
(38,575,o),
(58,577,cs),
(66,578,o),
(72,570,o),
(79,569,cs),
(85,567,o),
(92,553,o),
(95,547,cs),
(115,505,o),
(145,467,o),
(160,423,cs),
(161,419,o),
(162,415,o),
(159,413,cs),
(135,392,o),
(111,371,o),
(87,350,c),
(101,331,o),
(115,312,o),
(129,293,c),
(135,297,o),
(168,315,o),
(174,321,cs)
);
}
);
width = 356;
}
);
note = quotesingle;
unicode = (39,8216,8217,8218,8249,8250);
},
{
glyphname = parenleft;
layers = (
{
layerId = m01;
shapes = (
{
closed = 1;
nodes = (
(337,-127,o),
(339,-115,o),
(341,-103,cs),
(342,-94,o),
(325,-90,o),
(316,-91,c),
(311,-93,o),
(306,-96,o),
(300,-95,c),
(274,-94,o),
(247,-91,o),
(220,-87,c),
(221,-82,o),
(218,-76,o),
(214,-73,cs),
(210,-69,o),
(214,-62,o),
(213,-56,cs),
(211,-22,o),
(210,13,o),
(214,47,cs),
(221,110,o),
(279,464,o),
(290,525,cs),
(291,531,o),
(290,530,o),
(296,532,cs),
(312,538,o),
(413,573,o),
(429,579,cs),
(433,580,o),
(436,583,o),
(437,586,c),
(438,604,o),
(440,622,o),
(441,640,c),
(398,637,o),
(135,617,o),
(92,613,c),
(63,391,o),
(36,169,o),
(7,-53,cs),
(5,-69,o),
(-2,-158,o),
(-3,-173,c),
(41,-166,o),
(291,-143,o),
(335,-139,c)
);
}
);
width = 423;
}
);
note = parenleft;
unicode = 40;
},
{
glyphname = parenright;
layers = (
{
layerId = m01;
shapes = (
{
closed = 1;
nodes = (
(251,-113,o),
(261,-98,o),
(258,-83,c),
(257,-81,o),
(256,-80,o),
(256,-79,c),
(257,-77,o),
(262,-77,o),
(263,-75,c),
(269,-42,o),
(301,144,o),
(305,177,cs),
(328,351,o),
(351,525,o),
(374,699,c),
(260,673,o),
(147,646,o),
(33,620,cs),
(26,618,o),
(20,609,o),
(18,602,cs),
(17,597,o),
(18,592,o),
(16,587,cs),
(9,568,o),
(18,547,o),
(37,542,cs),
(45,540,o),
(89,539,o),
(96,537,c),
(98,537,o),
(108,533,o),
(110,533,c),
(116,531,o),
(149,526,o),
(155,525,cs),
(159,525,o),
(162,524,o),
(161,519,cs),
(146,434,o),
(131,349,o),
(116,263,cs),
(105,198,o),
(86,134,o),
(68,69,cs),
(66,60,o),
(61,52,o),
(61,42,c),
(17,14,o),
(-31,-6,o),
(-78,-27,cs),
(-89,-32,o),
(-101,-35,o),
(-107,-44,cs),
(-110,-48,o),
(-116,-45,o),
(-121,-45,cs),
(-143,-44,o),
(-147,-73,o),
(-127,-83,c),
(-127,-91,o),
(-124,-101,o),
(-116,-105,cs),
(-108,-110,o),
(-97,-107,o),
(-88,-108,cs),
(-3,-116,o),
(83,-115,o),
(168,-115,cs),
(178,-115,o),
(227,-116,o),
(236,-115,cs)
);
},
{
closed = 1;
nodes = (
(432,606,o),
(418,510,o),
(423,539,cs),
(429,571,o),
(434,603,o),
(436,635,c)
);
},
{
closed = 1;
nodes = (
(243,625,o),
(247,627,o),
(247,627,c),
(247,628,o),
(244,626,o),
(244,625,c),
(244,625,o),
(244,625,o),
(243,625,c)
);
},
{
closed = 1;
nodes = (
(-55,-58,o),
(-48,-57,o),
(-45,-55,c),
(-42,-54,o),
(-42,-57,o),
(-41,-60,cs),
(-41,-61,o),
(-49,-60,o),
(-51,-59,cs)
);
},
{
closed = 1;
nodes = (
(189,-65,o),
(187,-64,o),
(187,-64,c),
(187,-65,o),
(188,-63,o),
(188,-62,c),
(188,-62,o),
(189,-65,o),
(189,-65,c)
);
}
);
width = 422;
}
);
note = parenright;
unicode = 41;
},
{
glyphname = comma;
layers = (
{
layerId = m01;
shapes = (
{
closed = 1;
nodes = (
(67,-202,o),
(90,-184,o),
(113,-165,cs),
(125,-155,o),
(182,-105,o),
(192,-92,cs),
(194,-89,o),
(204,-69,o),
(206,-65,cs),
(225,-34,o),
(242,-1,o),
(254,33,cs),
(280,110,o),
(252,203,o),
(172,212,cs),
(160,213,o),
(125,212,o),
(115,206,cs),
(78,182,o),
(42,155,o),
(10,124,cs),
(5,119,o),
(10,110,o),
(11,103,c),
(22,110,o),
(35,118,o),
(48,118,cs),
(61,118,o),
(76,115,o),
(85,105,cs),
(119,69,o),
(98,-21,o),
(78,-67,cs),
(62,-105,o),
(37,-139,o),
(11,-171,c),
(19,-185,o),
(27,-198,o),
(35,-211,c),
(37,-213,o),
(39,-217,o),
(41,-216,cs)
);
}
);
width = 277;
}
);
note = comma;
unicode = 44;
},
{
glyphname = hyphen;
layers = (
{
layerId = m01;
shapes = (
{
closed = 1;
nodes = (
(30,306,o),
(39,312,o),
(48,317,cs),
(53,320,o),
(58,329,o),
(66,333,cs),
(79,339,o),
(134,336,o),
(149,335,cs),
(223,331,o),
(298,323,o),
(370,309,c),
(373,309,o),
(376,312,o),
(377,314,c),
(406,340,o),
(435,366,o),
(463,392,c),
(465,393,o),
(464,396,o),
(462,399,cs),
(458,406,o),
(447,408,o),
(438,409,cs),
(364,415,o),
(289,424,o),
(215,426,cs),
(181,426,o),
(147,425,o),
(116,415,cs),
(88,406,o),
(63,385,o),
(46,362,cs),
(34,346,o),
(12,312,o),
(21,294,c),
(21,293,o),
(22,297,o),
(23,298,cs)
);
},
{
closed = 1;
nodes = (
(331,116,o),
(338,125,o),
(345,133,cs),
(378,167,o),
(412,200,o),
(446,233,cs),
(458,244,o),
(440,255,o),
(428,245,cs),
(424,242,o),
(402,224,o),
(398,221,c),
(311,243,o),
(223,259,o),
(133,267,cs),
(125,267,o),
(115,266,o),
(108,261,cs),
(104,258,o),
(102,251,o),
(98,248,cs),
(69,228,o),
(46,201,o),
(25,174,cs),
(17,165,o),
(7,151,o),
(17,147,cs),
(26,144,o),
(35,140,o),
(43,137,cs),
(50,134,o),
(53,142,o),
(53,149,c),
(54,154,o),
(65,167,o),
(68,166,c),
(72,163,o),
(79,163,o),
(83,165,c),
(113,156,o),
(266,114,o),
(296,110,cs),
(305,109,o),
(312,116,o),
(321,116,cs)
);
},
{
closed = 1;
nodes = (
(260,166,o),
(260,163,o),
(261,163,c),
(260,162,o),
(258,162,o),
(257,161,c),
(250,162,o),
(252,162,o),
(259,165,c)
);
}
);
width = 473;
}
);
note = hyphen;
unicode = 45;
},
{
glyphname = period;
layers = (
{
layerId = m01;
shapes = (
{
closed = 1;
nodes = (
(382,79,o),
(380,92,o),
(378,105,c),
(371,106,o),
(341,100,o),
(333,98,c),
(329,98,o),
(327,100,o),
(325,104,cs),
(316,124,o),
(264,217,o),
(249,235,cs),
(245,241,o),
(238,246,o),
(231,246,cs),
(223,246,o),
(200,234,o),
(194,229,c),
(160,209,o),
(29,127,o),
(6,95,c),
(13,88,o),
(21,82,o),
(28,75,c),
(33,82,o),
(41,87,o),
(48,93,c),
(97,68,o),
(130,22,o),
(171,-14,cs),
(174,-16,o),
(178,-20,o),
(181,-18,cs),
(246,16,o),
(315,41,o),
(384,66,c)
);
},
{
closed = 1;
nodes = (
(84,117,o),
(84,117,o),
(84,117,c),
(84,117,o),
(84,117,o),
(84,117,c)
);
}
);
width = 391;
}
);
note = period;
unicode = 46;
},
{
glyphname = zero;
layers = (
{
layerId = m01;
shapes = (
{
closed = 1;
nodes = (
(149,132,o),
(199,181,o),
(249,228,c),
(231,267,o),
(214,307,o),
(198,347,cs),
(187,376,o),
(176,406,o),
(172,438,c),
(234,402,o),
(293,361,o),
(352,321,c),
(419,381,o),
(489,438,o),
(558,496,cs),
(561,498,o),
(564,500,o),
(562,501,cs),
(526,524,o),
(487,542,o),
(449,559,cs),
(443,562,o),
(438,568,o),
(438,575,c),
(440,583,o),
(445,619,o),
(443,628,cs),
(441,640,o),
(427,650,o),
(415,654,cs),
(381,664,o),
(235,659,o),
(200,657,c),
(182,624,o),
(164,592,o),
(146,559,c),
(158,554,o),
(171,551,o),
(184,548,c),
(141,478,o),
(74,425,o),
(8,376,c),
(8,368,o),
(5,333,o),
(7,325,cs),
(26,240,o),
(49,152,o),
(96,79,cs),
(98,75,o),
(100,79,o),
(103,81,c)
);
},
{
closed = 1;
nodes = (
(153,655,o),
(129,658,o),
(124,647,cs),
(114,627,o),
(104,607,o),
(94,586,cs),
(92,581,o),
(96,579,o),
(101,577,cs),
(107,574,o),
(112,572,o),
(118,569,c),
(133,598,o),
(149,627,o),
(165,655,c)
);
},
{
closed = 1;
nodes = (
(317,-42,o),
(328,-24,o),
(333,-15,cs),
(341,2,o),
(400,66,o),
(413,80,cs),
(429,97,o),
(513,183,o),
(532,198,cs),
(551,213,o),
(650,280,o),
(666,299,cs),
(686,324,o),
(690,363,o),
(675,389,cs),
(654,426,o),
(624,458,o),
(590,483,c),
(521,425,o),
(451,369,o),
(384,310,cs),
(381,307,o),
(383,305,o),
(386,303,cs),
(399,295,o),
(406,277,o),
(405,262,cs),
(401,207,o),
(392,149,o),
(362,102,c),
(335,112,o),
(309,129,o),
(292,152,cs),
(281,167,o),
(271,184,o),
(263,200,c),
(213,153,o),
(164,105,o),
(118,54,c),
(116,51,o),
(117,48,o),
(120,45,cs),
(144,15,o),
(176,-11,o),
(211,-26,cs),
(241,-38,o),
(274,-42,o),
(307,-42,cs)
);
},
{
closed = 1;
nodes = (
(428,165,o),
(428,163,o),
(427,163,c),
(428,163,o),
(428,164,o),
(429,164,c)
);
}
);
width = 672;
}
);
note = zero;
unicode = 48;
},
{
glyphname = one;
layers = (
{
layerId = m01;
shapes = (
{
closed = 1;
nodes = (
(430,360,o),
(460,444,o),
(496,524,cs),
(497,527,o),
(495,530,o),
(494,532,c),
(455,575,o),
(416,618,o),
(377,661,c),
(351,635,o),
(324,609,o),
(293,590,cs),
(257,567,o),
(218,550,o),
(178,538,cs),
(174,537,o),
(172,533,o),
(171,530,cs),
(165,514,o),
(132,429,o),
(128,414,c),
(153,410,o),
(178,408,o),
(203,406,c),
(192,379,o),
(123,221,o),
(113,193,c),
(83,182,o),
(52,169,o),
(22,159,cs),
(14,156,o),
(11,152,o),
(10,144,c),
(8,143,o),
(6,143,o),
(4,143,c),
(4,101,o),
(6,60,o),
(9,19,c),
(141,30,o),
(276,20,o),
(405,-9,c),
(402,85,o),
(400,181,o),
(416,274,cs)
);
},
{
closed = 1;
nodes = (
(566,547,o),
(564,549,o),
(563,549,c),
(573,540,o),
(577,539,o),
(567,547,c)
);
},
{
closed = 1;
nodes = (
(119,461,o),
(124,483,o),
(130,505,cs),
(131,510,o),
(138,529,o),
(138,534,cs),
(138,537,o),
(139,543,o),
(138,543,cs),
(131,541,o),
(87,531,o),
(80,528,c),
(78,521,o),
(69,485,o),
(69,478,cs),
(69,466,o),
(61,427,o),
(56,418,c),
(61,417,o),
(92,412,o),
(97,411,cs),
(109,410,o),
(112,427,o),
(114,439,cs)
);
},
{
closed = 1;
nodes = (
(522,17,o),
(524,14,o),
(524,16,c),
(522,24,o),
(519,32,o),
(518,40,cs),
(505,120,o),
(492,202,o),
(474,281,c),
(464,280,o),
(447,282,o),
(446,272,cs),
(429,178,o),
(432,80,o),
(435,-16,c),
(468,-24,o),
(501,-33,o),
(534,-43,c),
(531,-27,o),
(528,-10,o),
(525,6,c),
(525,11,o),
(523,9,o),
(521,11,c)
);
},
{
closed = 1;
nodes = (
(332,-24,o),
(363,-30,o),
(368,-31,cs),
(354,-28,o),
(341,-26,o),
(327,-24,c)
);
},
{
closed = 1;
nodes = (
(599,-62,o),
(603,-61,o),
(602,-61,c),
(603,-61,o),
(601,-58,o),
(601,-57,c),
(600,-58,o),
(600,-62,o),
(600,-63,c)
);
}
);
width = 560;
}
);
note = one;
unicode = 49;
},
{
glyphname = two;
layers = (
{
layerId = m01;
shapes = (
{
closed = 1;
nodes = (
(58,-73,o),
(99,-51,o),
(111,-47,cs),
(172,-22,o),
(238,-9,o),
(304,-7,cs),
(453,-4,o),
(603,-26,o),
(748,-59,c),
(767,-40,o),
(786,-21,o),
(805,-3,cs),
(812,4,o),
(823,10,o),
(816,15,cs),
(771,51,o),
(729,92,o),
(689,133,cs),
(650,174,o),
(611,216,o),
(579,262,c),
(564,256,o),
(470,218,o),
(454,212,cs),
(452,211,o),
(447,210,o),
(447,207,cs),
(446,200,o),
(442,160,o),
(441,153,cs),
(441,149,o),
(440,147,o),
(436,147,cs),
(391,149,o),
(347,153,o),
(302,150,cs),
(298,150,o),
(297,150,o),
(300,153,cs),
(321,180,o),
(346,203,o),
(373,224,cs),
(391,239,o),
(501,318,o),
(520,332,cs),
(559,360,o),
(598,390,o),
(629,427,cs),
(635,434,o),
(663,470,o),
(668,478,cs),
(677,496,o),
(650,509,o),
(633,519,cs),
(543,571,o),
(454,624,o),
(361,671,cs),
(354,674,o),
(333,685,o),
(326,683,cs),
(319,682,o),
(313,674,o),
(313,666,cs),
(314,660,o),
(309,659,o),
(302,661,cs),
(270,669,o),
(214,630,o),
(192,606,cs),
(163,574,o),
(145,534,o),
(130,494,cs),
(120,470,o),
(113,444,o),
(110,417,c),
(99,426,o),
(41,473,o),
(30,480,c),
(21,438,o),
(13,395,o),
(4,352,c),
(62,325,o),
(119,297,o),
(174,264,cs),
(178,262,o),
(200,254,o),
(205,252,c),
(223,265,o),
(240,277,o),
(257,291,c),
(252,338,o),
(240,460,o),
(273,495,cs),
(294,518,o),
(323,493,o),
(335,464,cs),
(352,422,o),
(354,373,o),
(347,328,cs),
(346,322,o),
(345,316,o),
(341,312,cs),
(269,246,o),
(187,193,o),
(105,141,cs),
(93,134,o),
(82,127,o),
(72,119,cs),
(69,117,o),
(65,117,o),
(64,114,cs),
(56,98,o),
(51,80,o),
(46,63,cs),
(44,55,o),
(52,39,o),
(57,33,c),
(38,32,o),
(16,37,o),
(0,26,c),
(-2,24,o),
(-4,22,o),
(-3,19,cs),
(11,-17,o),
(27,-52,o),
(46,-86,cs),
(47,-88,o),
(48,-83,o),
(49,-82,cs)
);
},
{
closed = 1;
nodes = (
(367,364,o),
(368,351,o),
(368,354,cs),
(368,355,o),
(367,360,o),
(367,361,cs)
);
},
{
closed = 1;
nodes = (
(563,288,o),
(564,290,o),
(564,289,c),
(564,289,o),
(563,289,o),
(563,290,cs)
);
},
{
closed = 1;
nodes = (
(582,234,o),
(584,235,o),
(583,234,c),
(583,233,o),
(582,234,o),
(582,234,c)
);
},
{
closed = 1;
nodes = (
(475,215,o),
(474,209,o),
(474,211,cs),
(474,214,o),
(476,222,o),
(475,217,cs)
);
},
{
closed = 1;
nodes = (
(750,114,o),
(749,115,o),
(749,115,c),
(749,115,o),
(749,113,o),
(750,114,c)
);
}
);
width = 797;
}
);
note = two;
unicode = 50;
},
{
glyphname = three;
layers = (
{
layerId = m01;
shapes = (
{
closed = 1;
nodes = (
(645,544,o),
(656,557,o),
(668,570,c),
(656,599,o),
(641,627,o),
(627,656,cs),
(624,662,o),
(616,658,o),
(610,656,cs),
(598,653,o),
(585,650,o),
(573,647,c),
(591,608,o),
(609,570,o),
(627,532,cs),
(630,527,o),
(629,527,o),
(633,531,cs)
);
},
{
closed = 1;
nodes = (
(529,24,o),
(600,59,o),
(650,113,c),
(652,116,o),
(655,118,o),
(658,120,cs),
(667,127,o),
(699,174,o),
(707,182,c),
(708,184,o),
(708,190,o),
(709,191,c),
(722,219,o),
(722,248,o),
(712,276,cs),
(704,295,o),
(688,311,o),
(671,324,cs),
(622,361,o),
(554,373,o),
(492,373,cs),
(482,373,o),
(484,388,o),
(491,394,cs),
(508,408,o),
(592,489,o),
(607,505,c),
(587,547,o),
(567,590,o),
(547,633,c),
(545,636,o),
(543,639,o),
(539,638,cs),
(454,617,o),
(367,604,o),
(280,597,c),
(271,578,o),
(262,558,o),
(252,539,cs),
(226,488,o),
(193,440,o),
(161,392,cs),
(158,388,o),
(158,388,o),
(164,388,cs),
(171,389,o),
(209,393,o),
(216,395,cs),
(276,410,o),
(334,434,o),
(391,457,c),
(393,466,o),
(409,498,o),
(414,505,cs),
(428,525,o),
(448,532,o),
(470,525,cs),
(492,519,o),
(495,492,o),
(484,471,cs),
(480,463,o),
(453,433,o),
(446,426,cs),
(410,392,o),
(363,372,o),
(319,350,cs),
(315,348,o),
(316,346,o),
(318,342,cs),
(320,338,o),
(333,318,o),
(334,315,c),
(383,320,o),
(486,326,o),
(514,286,cs),
(519,280,o),
(526,274,o),
(524,267,cs),
(521,249,o),
(505,235,o),
(491,223,cs),
(455,195,o),
(411,174,o),
(366,162,c),
(369,174,o),
(385,236,o),
(386,248,cs),
(387,252,o),
(390,261,o),
(387,264,c),
(387,263,o),
(384,264,o),
(383,264,cs),
(319,253,o),
(255,247,o),
(190,243,c),
(176,216,o),
(162,190,o),
(151,163,cs),
(140,139,o),
(74,11,o),
(61,-12,cs),
(59,-15,o),
(59,-18,o),
(63,-19,cs),
(86,-28,o),
(186,-52,o),
(211,-53,cs),
(295,-53,o),
(381,-34,o),
(460,-3,cs)
);
},
{
closed = 1;
nodes = (
(137,240,o),
(124,240,o),
(111,241,cs),
(106,241,o),
(106,241,o),
(103,235,cs),
(68,168,o),
(25,105,o),
(-18,42,c),
(-5,24,o),
(11,9,o),
(29,-3,c),
(73,76,o),
(117,156,o),
(150,241,c)
);
}
);
width = 723;
}
);
note = three;
unicode = 51;
},
{
glyphname = four;
layers = (
{
layerId = m01;
shapes = (
{
closed = 1;
nodes = (
(464,93,o),
(532,111,o),
(601,125,c),
(602,182,o),
(605,240,o),
(621,295,cs),
(637,353,o),
(661,409,o),
(689,462,cs),
(699,480,o),
(712,496,o),
(722,514,c),
(723,517,o),
(722,519,o),
(719,521,cs),
(696,539,o),
(673,556,o),
(650,573,c),
(605,548,o),
(561,522,o),
(520,492,cs),
(503,480,o),
(415,414,o),
(400,400,c),
(404,390,o),
(421,361,o),
(418,351,c),
(418,349,o),
(427,352,o),
(426,350,cs),
(423,343,o),
(421,332,o),
(414,331,cs),
(366,328,o),
(319,318,o),
(272,307,c),
(289,324,o),
(361,415,o),
(374,436,cs),
(376,439,o),
(376,441,o),
(373,443,c),
(340,457,o),
(308,476,o),
(277,496,cs),
(228,527,o),
(181,563,o),
(136,601,c),
(127,574,o),
(118,548,o),
(109,521,c),
(119,504,o),
(131,487,o),
(143,471,c),
(122,416,o),
(92,362,o),
(50,322,c),
(80,269,o),
(110,217,o),
(141,164,cs),
(143,161,o),
(146,159,o),
(149,159,c),
(222,174,o),
(295,189,o),
(368,200,c),
(361,181,o),
(331,72,o),
(326,52,c),
(335,55,o),
(387,71,o),
(396,74,cs)
);
},
{
closed = 1;
nodes = (
(386,514,o),
(384,515,o),
(384,515,c),
(384,515,o),
(389,511,o),
(389,511,c),
(389,511,o),
(386,514,o),
(386,514,c)
);
},
{
closed = 1;
nodes = (
(407,496,o),
(410,494,o),
(409,494,c),
(409,496,o),
(409,497,o),
(408,496,c)
);
},
{
closed = 1;
nodes = (
(269,482,o),
(266,478,o),
(265,475,c),
(265,475,o),
(266,483,o),
(266,483,c)
);
},
{
closed = 1;
nodes = (
(436,377,o),
(438,378,o),
(438,378,c),
(438,377,o),
(437,376,o),
(437,377,c)
);
},
{
closed = 1;
nodes = (
(84,202,o),
(55,252,o),
(27,302,c),
(14,292,o),
(0,283,o),
(-13,273,c),
(-2,254,o),
(50,159,o),
(65,142,cs),
(67,140,o),
(71,141,o),
(74,142,cs),
(87,144,o),
(100,146,o),
(112,148,c),
(112,149,o),
(114,152,o),
(113,152,c)
);
},
{
closed = 1;
nodes = (
(33,274,o),
(34,273,o),
(32,273,c),
(32,273,o),
(34,274,o),
(34,274,c)
);
},
{
closed = 1;
nodes = (
(504,-9,o),
(584,-4,o),
(663,-1,cs),
(669,-1,o),
(669,0,o),
(668,5,cs),
(667,13,o),
(659,52,o),
(656,59,cs),
(650,73,o),
(645,87,o),
(641,101,c),
(628,105,o),
(581,90,o),
(567,87,cs),
(457,61,o),
(344,36,o),
(242,-14,c),
(247,-26,o),
(252,-38,o),
(257,-49,cs),
(259,-54,o),
(259,-54,o),
(265,-53,cs),
(318,-41,o),
(371,-29,o),
(425,-21,cs)
);
}
);
width = 713;
}
);
note = four;
unicode = 52;
},
{
glyphname = five;
layers = (
{
layerId = m01;
shapes = (
{
closed = 1;
nodes = (
(651,700,o),
(601,703,o),
(552,712,c),
(549,712,o),
(549,708,o),
(548,705,cs),
(540,686,o),
(494,569,o),
(486,550,cs),
(480,537,o),
(444,455,o),
(439,442,c),
(470,440,o),
(502,439,o),
(533,438,c),
(539,437,o),
(540,438,o),
(542,442,cs),
(561,474,o),
(682,663,o),
(701,694,c)
);
},
{
closed = 1;
nodes = (
(559,84,o),
(596,137,o),
(604,196,cs),
(609,238,o),
(584,283,o),
(554,314,cs),
(513,355,o),
(456,383,o),
(399,393,cs),
(337,404,o),
(272,396,o),
(211,383,cs),
(184,377,o),
(157,371,o),
(132,361,c),
(148,390,o),
(165,420,o),
(181,450,c),
(189,450,o),
(232,454,o),
(240,453,cs),
(295,450,o),
(351,445,o),
(407,443,c),
(413,458,o),
(453,549,o),
(459,564,cs),
(465,576,o),
(494,650,o),
(499,662,c),
(387,652,o),
(275,643,o),
(165,628,cs),
(159,627,o),
(159,619,o),
(159,613,cs),
(159,602,o),
(161,533,o),
(162,521,cs),
(162,516,o),
(162,516,o),
(155,515,cs),
(150,515,o),
(117,511,o),
(111,510,cs),
(105,510,o),
(105,509,o),
(103,504,cs),
(71,420,o),
(39,336,o),
(9,250,c),
(78,283,o),
(153,304,o),
(229,316,cs),
(244,319,o),
(297,324,o),
(311,320,cs),
(333,313,o),
(333,286,o),
(324,266,cs),
(318,251,o),
(289,202,o),
(276,192,cs),
(270,188,o),
(233,163,o),
(226,158,c),
(223,176,o),
(236,258,o),
(237,277,c),
(153,223,o),
(70,170,o),
(-10,111,c),
(111,50,o),
(233,-10,o),
(356,-65,cs),
(367,-70,o),
(380,-79,o),
(390,-73,cs),
(440,-46,o),
(484,-6,o),
(521,38,cs)
);
},
{
closed = 1;
nodes = (
(481,20,o),
(468,9,o),
(472,13,c),
(474,14,o),
(484,22,o),
(486,24,c)
);
}
);
width = 669;
}
);
note = five;
unicode = 53;
},
{
glyphname = six;
layers = (
{
layerId = m01;
shapes = (
{
closed = 1;
nodes = (
(458,511,o),
(418,580,o),
(386,653,c),
(373,656,o),
(360,659,o),
(348,662,cs),
(342,663,o),
(342,651,o),
(343,645,c),
(366,572,o),
(392,500,o),
(429,433,c),
(433,428,o),
(443,432,o),
(450,434,cs),
(468,437,o),
(487,442,o),
(505,446,c)
);
},
{
closed = 1;
nodes = (
(364,-24,o),
(429,0,o),
(486,38,cs),
(531,69,o),
(579,97,o),
(620,134,cs),
(643,155,o),
(665,181,o),
(676,210,cs),
(686,237,o),
(687,269,o),
(676,295,cs),
(664,322,o),
(641,343,o),
(617,359,cs),
(600,370,o),
(580,374,o),
(561,377,cs),
(503,387,o),
(443,380,o),
(386,367,cs),
(344,358,o),
(302,346,o),
(264,329,cs),
(253,324,o),
(242,320,o),
(232,313,c),
(238,301,o),
(281,252,o),
(290,242,c),
(319,242,o),
(406,230,o),
(429,212,c),
(433,210,o),
(442,197,o),
(443,193,cs),
(445,189,o),
(446,170,o),
(447,165,cs),
(448,148,o),
(434,125,o),
(417,121,cs),
(408,120,o),
(382,118,o),
(374,123,cs),
(340,143,o),
(306,167,o),
(282,199,cs),
(254,237,o),
(229,279,o),
(208,322,cs),
(189,360,o),
(171,399,o),
(163,441,c),
(175,463,o),
(201,484,o),
(227,482,cs),
(236,481,o),
(246,484,o),
(254,481,cs),
(272,474,o),
(316,423,o),
(328,408,c),
(352,413,o),
(376,418,o),
(401,423,c),
(371,477,o),
(347,533,o),
(329,591,c),
(245,569,o),
(162,538,o),
(85,496,cs),
(49,476,o),
(11,447,o),
(-3,408,cs),
(-4,405,o),
(-6,402,o),
(-7,399,cs),
(-13,378,o),
(12,314,o),
(20,293,cs),
(58,196,o),
(113,101,o),
(186,27,cs),
(203,10,o),
(250,-37,o),
(274,-38,cs),
(282,-38,o),
(291,-43,o),
(299,-41,cs)
);
},
{
closed = 1;
nodes = (
(301,507,o),
(301,506,o),
(301,506,c),
(301,506,o),
(301,506,o),
(302,507,c)
);
},
{
closed = 1;
nodes = (
(533,460,o),
(529,464,o),
(531,462,cs),
(535,456,o),
(539,452,o),
(535,458,cs)
);
},
{
closed = 1;
nodes = (
(332,455,o),
(333,454,o),
(332,454,c),
(332,454,o),
(332,455,o),
(332,455,c)
);
},
{
closed = 1;
nodes = (
(581,76,o),
(578,74,o),
(577,73,cs),
(575,71,o),
(586,80,o),
(583,78,cs)
);
}
);
width = 673;
}
);
note = six;
unicode = 54;
},
{
glyphname = seven;
layers = (
{
layerId = m01;
shapes = (
{
closed = 1;
nodes = (
(273,-5,o),
(379,44,o),
(482,97,cs),
(486,99,o),
(487,100,o),
(485,106,cs),
(484,110,o),
(475,136,o),
(474,140,c),
(446,131,o),
(420,116,o),
(394,104,cs),
(392,103,o),
(388,101,o),
(389,103,cs),
(405,140,o),
(433,170,o),
(461,197,cs),
(499,233,o),
(539,266,o),
(581,297,cs),
(624,327,o),
(669,354,o),
(719,368,cs),
(729,370,o),
(742,373,o),
(735,381,cs),
(682,440,o),
(628,499,o),
(574,559,c),
(549,560,o),
(524,557,o),
(499,554,cs),
(494,554,o),
(495,556,o),
(496,561,cs),
(501,582,o),
(533,709,o),
(538,730,c),
(518,741,o),
(492,736,o),
(469,734,cs),
(390,725,o),
(311,708,o),
(235,685,cs),
(166,663,o),
(100,634,o),
(33,610,cs),
(25,607,o),
(-7,584,o),
(-14,579,c),
(2,545,o),
(93,335,o),
(110,301,c),
(131,310,o),
(151,320,o),
(171,330,cs),
(179,333,o),
(191,335,o),
(187,342,cs),
(184,349,o),
(167,378,o),
(166,385,cs),
(162,405,o),
(194,415,o),
(212,423,cs),
(260,444,o),
(308,465,o),
(357,481,cs),
(393,493,o),
(429,499,o),
(466,506,cs),
(479,508,o),
(505,508,o),
(495,500,cs),
(478,487,o),
(379,404,o),
(362,390,cs),
(319,355,o),
(277,317,o),
(240,276,cs),
(217,251,o),
(107,158,o),
(94,127,c),
(91,122,o),
(91,102,o),
(91,96,cs),
(93,77,o),
(101,59,o),
(109,41,cs),
(120,15,o),
(130,-15,o),
(152,-33,c),
(149,-36,o),
(129,-52,o),
(126,-56,c),
(124,-57,o),
(128,-60,o),
(129,-62,cs),
(134,-71,o),
(139,-79,o),
(145,-88,c),
(155,-82,o),
(165,-74,o),
(175,-68,cs)
);
},
{
closed = 1;
nodes = (
(135,510,o),
(131,509,o),
(131,508,c),
(130,509,o),
(129,508,o),
(128,508,c),
(128,508,o),
(135,510,o),
(135,509,c)
);
},
{
closed = 1;
nodes = (
(664,376,o),
(663,375,o),
(663,375,c),
(661,376,o),
(665,376,o),
(664,376,c)
);
},
{
closed = 1;
nodes = (
(550,307,o),
(548,306,o),
(547,306,c),
(548,305,o),
(549,306,o),
(548,307,c),
(549,307,o),
(549,307,o),
(550,307,c)
);
}
);
width = 718;
}
);
note = seven;
unicode = 55;
},
{
glyphname = eight;
layers = (
{
layerId = m01;
shapes = (
{
closed = 1;
nodes = (
(535,-23,o),
(588,3,o),
(627,42,cs),
(640,55,o),
(652,70,o),
(658,88,cs),
(662,99,o),
(663,111,o),
(666,123,cs),
(674,148,o),
(675,176,o),
(669,201,cs),
(658,242,o),
(631,279,o),
(599,306,cs),
(561,338,o),
(514,357,o),
(468,376,c),
(419,353,o),
(368,336,o),
(320,313,cs),
(302,304,o),
(285,294,o),
(270,282,c),
(271,281,o),
(270,280,o),
(272,279,c),
(294,274,o),
(313,262,o),
(333,253,cs),
(373,235,o),
(412,213,o),
(446,186,cs),
(448,184,o),
(458,176,o),
(460,175,cs),
(469,169,o),
(486,156,o),
(476,155,cs),
(411,146,o),
(341,146,o),
(279,169,cs),
(275,171,o),
(266,183,o),
(263,187,cs),
(245,212,o),
(239,247,o),
(243,279,cs),
(244,284,o),
(247,301,o),
(251,305,cs),
(269,321,o),
(291,333,o),
(312,343,cs),
(340,355,o),
(474,408,o),
(498,426,cs),
(521,444,o),
(532,475,o),
(534,504,cs),
(539,554,o),
(516,610,o),
(476,642,cs),
(468,649,o),
(421,678,o),
(413,684,cs),
(387,700,o),
(359,713,o),
(330,723,c),
(323,716,o),
(282,672,o),
(275,665,c),
(247,678,o),
(214,679,o),
(183,676,cs),
(151,674,o),
(117,665,o),
(91,646,cs),
(62,625,o),
(39,593,o),
(32,558,cs),
(27,527,o),
(37,493,o),
(53,465,c),
(33,445,o),
(13,423,o),
(-6,402,cs),
(-9,399,o),
(-4,397,o),
(0,396,cs),
(47,380,o),
(94,363,o),
(140,345,c),
(153,356,o),
(169,364,o),
(182,375,cs),
(216,402,o),
(255,423,o),
(295,443,cs),
(298,444,o),
(302,444,o),
(299,447,cs),
(296,449,o),
(281,455,o),
(277,456,c),
(240,471,o),
(205,491,o),
(170,511,c),
(197,520,o),
(225,530,o),
(253,534,c),
(295,506,o),
(332,471,o),
(371,440,cs),
(377,435,o),
(373,430,o),
(366,427,cs),
(342,418,o),
(234,376,o),
(213,360,cs),
(154,316,o),
(100,259,o),
(69,192,c),
(70,192,o),
(68,189,o),
(67,189,c),
(63,187,o),
(45,193,o),
(40,194,c),
(53,164,o),
(69,136,o),
(87,110,cs),
(111,76,o),
(144,49,o),
(174,20,cs),
(204,-9,o),
(323,-39,o),
(366,-41,cs),
(383,-42,o),
(464,-36,o),
(482,-33,cs)
);
},
{
closed = 1;
nodes = (
(454,696,o),
(462,688,o),
(466,686,c),
(469,683,o),
(461,691,o),
(458,694,c)
);
},
{
closed = 1;
nodes = (
(80,323,o),
(82,324,o),
(82,324,c),
(82,324,o),
(81,324,o),
(81,324,c)
);
},
{
closed = 1;
nodes = (
(420,257,o),
(421,257,o),
(421,257,c),
(421,257,o),
(420,256,o),
(420,257,c)
);
}
);
width = 664;
}
);
note = eight;
unicode = 56;
},
{
glyphname = nine;
layers = (
{
layerId = m01;
shapes = (
{
closed = 1;
nodes = (
(305,700,o),
(305,700,o),
(301,705,cs),
(296,713,o),
(291,721,o),
(286,729,cs),
(284,732,o),
(280,731,o),
(277,730,cs),
(203,694,o),
(130,657,o),
(58,617,c),
(59,590,o),
(61,563,o),
(60,536,c),
(140,589,o),
(220,643,o),
(300,697,cs)
);
},
{
closed = 1;
nodes = (
(408,-24,o),
(458,13,o),
(504,53,cs),
(531,78,o),
(556,106,o),
(575,137,cs),
(607,191,o),
(627,251,o),
(649,309,c),
(639,387,o),
(610,467,o),
(561,529,cs),
(510,594,o),
(446,648,o),
(380,698,c),
(330,669,o),
(58,481,o),
(10,448,c),
(23,402,o),
(40,356,o),
(64,313,cs),
(79,285,o),
(95,254,o),
(123,239,cs),
(158,219,o),
(203,207,o),
(242,216,cs),
(248,217,o),
(254,220,o),
(260,221,cs),
(301,226,o),
(341,248,o),
(371,276,cs),
(375,280,o),
(375,280,o),
(377,274,cs),
(386,236,o),
(393,197,o),
(400,158,c),
(392,123,o),
(378,87,o),
(354,60,cs),
(343,48,o),
(331,30,o),
(314,30,cs),
(312,30,o),
(309,27,o),
(306,32,c),
(306,33,o),
(304,33,o),
(303,34,cs),
(297,40,o),
(287,60,o),
(286,69,cs),
(285,97,o),
(299,126,o),
(318,147,cs),
(319,148,o),
(323,151,o),
(323,152,cs),
(324,155,o),
(321,164,o),
(321,167,c),
(301,157,o),
(185,102,o),
(166,91,cs),
(149,80,o),
(132,70,o),
(115,59,cs),
(111,57,o),
(111,57,o),
(112,50,c),
(123,14,o),
(134,-21,o),
(149,-56,cs),
(151,-61,o),
(154,-74,o),
(160,-74,cs),
(224,-76,o),
(291,-69,o),
(351,-46,cs)
);
},
{
closed = 1;
nodes = (
(64,595,o),
(66,595,o),
(66,593,cs),
(66,594,o),
(63,592,o),
(63,592,c),
(63,592,o),
(63,595,o),
(63,596,c)
);
},
{
closed = 1;
nodes = (
(223,397,o),
(199,432,o),
(174,465,cs),
(171,470,o),
(171,471,o),
(175,473,cs),
(199,488,o),
(223,503,o),
(247,517,c),
(252,519,o),
(252,519,o),
(254,515,cs),
(264,497,o),
(322,400,o),
(334,383,c),
(313,375,o),
(291,367,o),
(269,367,c),
(264,368,o),
(259,368,o),
(255,371,cs)
);
},
{
closed = 1;
nodes = (
(633,327,o),
(633,323,o),
(633,319,cs),
(633,315,o),
(632,334,o),
(632,331,cs)
);
},
{
closed = 1;
nodes = (
(214,158,o),
(209,168,o),
(205,177,c),
(184,172,o),
(62,139,o),
(41,135,c),
(38,135,o),
(40,132,o),
(40,129,c),
(46,109,o),
(52,90,o),
(58,70,c),
(111,97,o),
(165,123,o),
(218,149,c)
);
},
{
closed = 1;
nodes = (
(636,171,o),
(631,160,o),
(629,157,c),
(630,158,o),
(635,166,o),
(635,167,cs)
);
},
{
closed = 1;
nodes = (
(186,-15,o),
(203,-19,o),
(206,-19,c),
(198,-17,o),
(190,-16,o),
(183,-14,cs)
);
}
);
width = 657;
}
);
note = nine;
unicode = 57;
},
{
glyphname = colon;
layers = (
{
layerId = m01;
shapes = (
{
closed = 1;
nodes = (
(203,286,o),
(253,323,o),
(304,361,c),
(302,363,o),
(291,378,o),
(289,380,cs),
(285,384,o),
(280,380,o),
(276,377,c),
(259,395,o),
(187,451,o),
(164,460,cs),
(159,462,o),
(152,473,o),
(148,470,cs),
(101,427,o),
(54,383,o),
(11,336,c),
(14,332,o),
(21,322,o),
(26,323,c),
(28,324,o),
(38,335,o),
(41,336,cs),
(43,337,o),
(46,337,o),
(48,336,cs),
(64,326,o),
(127,277,o),
(139,263,cs),
(143,259,o),
(146,248,o),
(151,252,cs)
);
},
{
closed = 1;
nodes = (
(294,58,o),
(281,81,o),
(275,85,cs),
(269,88,o),
(260,78,o),
(256,83,cs),
(219,121,o),
(178,156,o),
(137,190,c),
(95,160,o),
(53,130,o),
(13,98,c),
(20,89,o),
(25,74,o),
(34,80,cs),
(40,85,o),
(47,89,o),
(53,94,c),
(65,79,o),
(130,-1,o),
(143,-14,cs),
(146,-17,o),
(145,-25,o),
(148,-24,c),
(198,2,o),
(247,28,o),
(297,52,c)
);
}
);
width = 314;
}
);
note = colon;
unicode = 58;
},
{
glyphname = semicolon;
layers = (
{
layerId = m01;
shapes = (
{
closed = 1;
nodes = (
(270,322,o),
(271,322,o),
(269,328,cs),
(266,340,o),
(263,352,o),
(259,365,c),
(252,362,o),
(226,343,o),
(220,338,c),
(216,352,o),
(181,416,o),
(174,429,cs),
(171,435,o),
(168,448,o),
(162,444,cs),
(111,408,o),
(62,369,o),
(13,330,cs),
(7,325,o),
(16,316,o),
(20,309,c),
(22,311,o),
(37,323,o),
(40,325,c),
(56,311,o),
(110,243,o),
(121,224,c),
(169,256,o),
(216,290,o),
(266,319,cs)
);
},
{
closed = 1;
nodes = (
(239,24,o),
(249,53,o),
(252,84,cs),
(255,104,o),
(255,125,o),
(248,145,cs),
(230,192,o),
(170,197,o),
(123,175,cs),
(82,156,o),
(47,125,o),
(14,93,cs),
(9,88,o),
(15,78,o),
(17,71,c),
(34,84,o),
(66,100,o),
(84,88,c),
(89,83,o),
(93,77,o),
(95,70,c),
(103,53,o),
(105,33,o),
(106,14,cs),
(106,-28,o),
(100,-69,o),
(90,-110,cs),
(86,-123,o),
(85,-136,o),
(81,-149,c),
(98,-158,o),
(115,-166,o),
(132,-175,c),
(169,-122,o),
(201,-64,o),
(227,-4,cs)
);
}
);
width = 284;
}
);
note = semicolon;
unicode = 59;
},
{
glyphname = question;
layers = (
{
layerId = m01;
shapes = (
{
closed = 1;
nodes = (
(361,164,o),
(356,167,o),
(356,171,cs),
(355,180,o),
(355,218,o),
(351,226,cs),
(350,229,o),
(354,229,o),
(357,229,c),
(384,235,o),
(409,248,o),
(434,261,cs),
(475,283,o),
(513,309,o),
(550,337,cs),
(613,387,o),
(665,465,o),
(674,545,cs),
(682,612,o),
(644,732,o),
(587,767,cs),
(538,797,o),
(475,804,o),
(418,800,cs),
(394,798,o),
(369,794,o),
(345,786,cs),
(311,775,o),
(279,757,o),
(250,736,cs),
(232,724,o),
(213,712,o),
(199,695,cs),
(192,686,o),
(184,671,o),
(179,680,cs),
(176,685,o),
(163,712,o),
(161,716,cs),
(159,720,o),
(157,723,o),
(153,720,cs),
(146,715,o),
(118,700,o),
(113,693,c),
(113,693,o),
(114,689,o),
(114,689,c),
(111,692,o),
(109,689,o),
(105,687,c),
(64,659,o),
(24,631,o),
(-17,602,c),
(-12,596,o),
(18,560,o),
(22,553,cs),
(33,538,o),
(93,444,o),
(103,429,cs),
(120,407,o),
(137,383,o),
(160,368,cs),
(163,366,o),
(165,367,o),
(167,370,cs),
(188,399,o),
(212,427,o),
(238,453,cs),
(265,480,o),
(295,505,o),
(330,521,cs),
(362,535,o),
(432,541,o),
(461,521,cs),
(469,515,o),
(474,504,o),
(477,494,cs),
(481,480,o),
(475,464,o),
(469,450,cs),
(452,408,o),
(420,370,o),
(384,343,cs),
(334,305,o),
(272,283,o),
(212,265,c),
(211,223,o),
(215,180,o),
(217,138,c),
(218,133,o),
(218,131,o),
(222,131,cs),
(268,137,o),
(312,153,o),
(356,163,cs)
);
},
{
closed = 1;
nodes = (
(120,677,o),
(120,675,o),
(119,679,cs),
(117,683,o),
(116,685,o),
(118,681,cs)
);
},
{
closed = 1;
nodes = (
(411,-16,o),
(410,-9,o),
(410,-6,c),
(394,-11,o),
(378,-3,o),
(375,13,cs),
(369,40,o),
(365,66,o),
(362,92,c),
(301,76,o),
(240,57,o),
(178,45,c),
(187,33,o),
(220,17,o),
(235,15,c),
(238,-16,o),
(241,-47,o),
(244,-78,c),
(300,-63,o),
(355,-41,o),
(408,-18,c)
);
}
);
width = 669;
}
);
note = question;
unicode = 63;
},
{
glyphname = A;
layers = (
{
layerId = m01;
shapes = (
{
closed = 1;
nodes = (
(929,139,o),
(929,144,o),
(927,145,cs),
(909,151,o),
(815,175,o),
(796,179,cs),
(788,180,o),
(788,180,o),
(785,188,cs),
(777,208,o),
(746,332,o),
(738,352,cs),
(737,355,o),
(732,362,o),
(734,365,cs),
(742,374,o),
(784,422,o),
(790,432,cs),
(791,434,o),
(792,432,o),
(793,433,cs),
(796,437,o),
(799,442,o),
(802,446,c),
(706,513,o),
(618,590,o),
(537,674,c),
(530,671,o),
(493,651,o),
(486,647,c),
(485,646,o),
(477,638,o),
(475,637,cs),
(420,603,o),
(368,566,o),
(318,525,cs),
(195,425,o),
(77,311,o),
(-8,177,c),
(30,127,o),
(68,76,o),
(106,26,c),
(108,22,o),
(110,21,o),
(113,24,cs),
(182,91,o),
(254,155,o),
(330,213,c),
(324,220,o),
(317,226,o),
(311,233,c),
(310,235,o),
(310,250,o),
(312,251,cs),
(342,267,o),
(373,279,o),
(405,291,cs),
(415,295,o),
(470,313,o),
(481,315,c),
(497,270,o),
(502,222,o),
(508,174,c),
(497,175,o),
(487,175,o),
(476,178,c),
(472,178,o),
(467,182,o),
(467,177,cs),
(465,147,o),
(463,116,o),
(462,85,c),
(540,85,o),
(618,74,o),
(695,59,cs),
(780,42,o),
(866,25,o),
(949,-2,c),
(947,15,o),
(932,120,o),
(930,137,c)
);
},
{
closed = 1;
nodes = (
(394,622,o),
(400,625,o),
(398,625,cs),
(336,625,o),
(271,618,o),
(214,594,cs),
(198,588,o),
(172,582,o),
(181,568,cs),
(195,547,o),
(204,523,o),
(215,500,c),
(217,494,o),
(217,494,o),
(222,498,cs),
(278,539,o),
(335,580,o),
(392,620,c)
);
},
{
closed = 1;
nodes = (
(808,478,o),
(818,471,o),
(818,471,c),
(820,470,o),
(814,474,o),
(812,475,cs)
);
},
{
closed = 1;
nodes = (
(363,363,o),
(409,400,o),
(456,437,c),
(460,431,o),
(473,396,o),
(476,389,cs),
(478,385,o),
(475,383,o),
(471,382,cs),
(420,362,o),
(370,339,o),
(320,317,c),
(321,318,o),
(320,320,o),
(321,321,cs)
);
},
{
closed = 1;
nodes = (
(390,145,o),
(391,146,o),
(388,150,cs),
(384,155,o),
(364,183,o),
(361,188,c),
(331,164,o),
(165,11,o),
(137,-15,c),
(146,-26,o),
(156,-37,o),
(165,-48,c),
(235,20,o),
(310,82,o),
(386,142,cs)
);
},
{
closed = 1;
nodes = (
(608,111,o),
(616,111,o),
(608,111,cs),
(603,111,o),
(595,112,o),
(600,112,cs)
);
}
);
width = 941;
}
);
note = A;
unicode = (65,97,192,193,194,195,196,197,224,225,226,227,228,229);
},
{
glyphname = B;
layers = (
{
layerId = m01;
shapes = (
{
closed = 1;
nodes = (
(511,-18,o),
(590,13,o),
(655,61,cs),
(668,70,o),
(681,81,o),
(690,94,c),
(692,96,o),
(697,101,o),
(696,104,c),
(685,193,o),
(677,283,o),
(667,373,c),
(612,373,o),
(557,352,o),
(504,336,c),
(548,392,o),
(593,450,o),
(616,518,cs),
(621,533,o),
(629,577,o),
(622,592,cs),
(614,610,o),
(605,628,o),
(597,646,cs),
(590,660,o),
(550,683,o),
(536,690,cs),
(494,711,o),
(444,722,o),
(397,717,cs),
(321,709,o),
(245,684,o),
(177,648,cs),
(172,645,o),
(178,636,o),
(180,630,cs),
(181,626,o),
(185,599,o),
(186,595,c),
(139,570,o),
(92,546,o),
(44,524,cs),
(41,523,o),
(42,520,o),
(44,517,c),
(57,485,o),
(71,454,o),
(85,422,c),
(98,427,o),
(110,431,o),
(122,437,cs),
(130,440,o),
(139,448,o),
(141,440,cs),
(145,429,o),
(164,375,o),
(167,364,cs),
(170,346,o),
(190,244,o),
(192,227,c),
(184,227,o),
(175,228,o),
(167,228,c),
(153,199,o),
(134,173,o),
(121,143,c),
(119,140,o),
(115,137,o),
(119,135,cs),
(208,96,o),
(290,42,o),
(367,-17,cs),
(371,-20,o),
(394,-39,o),
(398,-42,cs),
(409,-50,o),
(424,-49,o),
(433,-39,c)
);
},
{
closed = 1;
nodes = (
(343,321,o),
(323,395,o),
(318,408,cs),
(316,415,o),
(309,422,o),
(317,424,cs),
(342,430,o),
(368,437,o),
(394,445,c),
(391,427,o),
(388,408,o),
(383,391,cs),
(375,364,o),
(362,339,o),
(350,313,cs),
(349,311,o),
(347,305,o),
(346,307,c)
);
},
{
closed = 1;
nodes = (
(771,181,o),
(798,214,o),
(801,225,cs),
(803,231,o),
(794,252,o),
(792,259,cs),
(786,282,o),
(779,305,o),
(773,328,cs),
(771,335,o),
(765,359,o),
(759,364,cs),
(756,367,o),
(741,369,o),
(737,370,cs),
(728,372,o),
(717,374,o),
(718,364,cs),
(721,338,o),
(737,179,o),
(740,153,cs),
(742,140,o),
(757,161,o),
(765,172,cs)
);
},
{
closed = 1;
nodes = (
(664,347,o),
(665,343,o),
(665,342,c),
(665,343,o),
(664,347,o),
(664,348,c)
);
},
{
closed = 1;
nodes = (
(472,326,o),
(472,327,o),
(472,327,c),
(472,327,o),
(472,325,o),
(471,326,c)
);
},
{
closed = 1;
nodes = (
(364,234,o),
(364,237,o),
(368,237,c),
(402,245,o),
(436,249,o),
(471,253,c),
(463,221,o),
(449,189,o),
(433,160,cs),
(423,143,o),
(409,128,o),
(393,116,c),
(384,154,o),
(374,192,o),
(365,230,cs)
);
},
{
closed = 1;
nodes = (
(11,233,o),
(4,216,o),
(-4,198,c),
(3,195,o),
(10,192,o),
(16,189,c),
(26,208,o),
(35,227,o),
(44,245,c),
(36,247,o),
(27,249,o),
(19,250,c)
);
},
{
closed = 1;
nodes = (
(114,225,o),
(120,231,o),
(113,233,cs),
(100,235,o),
(88,237,o),
(75,240,c),
(64,218,o),
(54,197,o),
(43,176,c),
(54,170,o),
(65,164,o),
(76,158,c),
(88,178,o),
(99,198,o),
(110,218,cs)
);
}
);
width = 797;
}
);
note = B;
unicode = (66,98);
},
{
glyphname = C;
layers = (
{
layerId = m01;
shapes = (
{
closed = 1;
nodes = (
(356,0,o),
(357,0,o),
(359,0,cs),
(413,-3,o),
(468,-1,o),
(522,5,cs),
(542,7,o),
(634,2,o),
(654,-1,cs),
(666,-3,o),
(682,-8,o),
(677,3,cs),
(627,99,o),
(576,194,o),
(525,289,cs),
(523,294,o),
(520,299,o),
(516,302,cs),
(512,306,o),
(502,306,o),
(497,304,cs),
(476,297,o),
(454,290,o),
(433,283,c),
(413,288,o),
(420,257,o),
(423,237,c),
(399,222,o),
(374,209,o),
(347,203,cs),
(297,193,o),
(187,213,o),
(151,250,cs),
(149,252,o),
(150,255,o),
(151,257,cs),
(177,314,o),
(200,373,o),
(224,432,cs),
(226,437,o),
(227,440,o),
(227,434,c),
(235,380,o),
(243,326,o),
(251,272,cs),
(252,266,o),
(254,254,o),
(258,257,cs),
(309,289,o),
(366,311,o),
(423,330,cs),
(430,332,o),
(427,340,o),
(425,348,cs),
(423,356,o),
(427,395,o),
(428,404,cs),
(431,473,o),
(437,542,o),
(446,611,cs),
(447,618,o),
(454,625,o),
(447,626,c),
(394,640,o),
(340,652,o),
(287,663,c),
(285,663,o),
(280,665,o),
(279,663,cs),
(272,653,o),
(244,592,o),
(238,582,c),
(215,578,o),
(72,566,o),
(49,562,cs),
(44,561,o),
(39,558,o),
(37,554,c),
(36,549,o),
(39,544,o),
(39,540,cs),
(41,520,o),
(34,427,o),
(32,408,cs),
(29,386,o),
(12,263,o),
(11,241,cs),
(9,198,o),
(18,150,o),
(45,117,cs),
(90,62,o),
(158,25,o),
(227,7,cs),
(268,-4,o),
(313,-10,o),
(355,0,cs)
);
},
{
closed = 1;
nodes = (
(531,357,o),
(536,356,o),
(536,359,cs),
(543,435,o),
(557,511,o),
(569,588,cs),
(570,594,o),
(570,594,o),
(565,596,cs),
(543,602,o),
(521,607,o),
(499,613,cs),
(493,615,o),
(484,613,o),
(481,607,c),
(480,603,o),
(481,587,o),
(480,583,c),
(480,557,o),
(468,401,o),
(468,375,cs),
(468,369,o),
(468,351,o),
(471,346,c),
(473,344,o),
(478,345,o),
(480,346,c),
(496,350,o),
(512,353,o),
(529,356,c)
);
},
{
closed = 1;
nodes = (
(262,353,o),
(262,350,o),
(262,350,c),
(262,351,o),
(262,353,o),
(262,354,c)
);
},
{
closed = 1;
nodes = (
(341,309,o),
(339,309,o),
(339,308,c),
(340,308,o),
(340,309,o),
(341,310,c)
);
},
{
closed = 1;
nodes = (
(468,271,o),
(469,274,o),
(470,273,c),
(469,273,o),
(470,271,o),
(470,271,c),
(469,270,o),
(468,272,o),
(467,271,c)
);
},
{
closed = 1;
nodes = (
(138,230,o),
(138,229,o),
(139,229,c),
(139,229,o),
(137,229,o),
(138,230,c)
);
}
);
width = 665;
}
);
note = C;
unicode = (67,99,199,231);
},
{
glyphname = D;
layers = (
{
layerId = m01;
shapes = (
{
closed = 1;
nodes = (
(576,150,o),
(577,148,o),
(578,143,cs),
(580,137,o),
(593,102,o),
(595,96,c),
(622,120,o),
(695,195,o),
(701,230,cs),
(706,266,o),
(711,301,o),
(715,337,cs),
(716,346,o),
(707,383,o),
(705,392,cs),
(700,412,o),
(677,497,o),
(667,514,cs),
(652,541,o),
(628,562,o),
(603,580,cs),
(583,593,o),
(500,643,o),
(477,649,cs),
(414,665,o),
(348,673,o),
(283,674,cs),
(279,674,o),
(275,673,o),
(273,670,cs),
(257,651,o),
(167,546,o),
(153,526,c),
(178,522,o),
(203,518,o),
(228,513,c),
(206,505,o),
(65,462,o),
(42,454,cs),
(38,453,o),
(34,451,o),
(38,448,cs),
(57,432,o),
(75,413,o),
(90,392,c),
(90,392,o),
(91,391,o),
(91,391,c),
(125,359,o),
(152,314,o),
(156,267,cs),
(160,216,o),
(122,162,o),
(72,152,cs),
(55,148,o),
(35,148,o),
(19,156,c),
(20,156,o),
(18,158,o),
(18,158,c),
(18,158,o),
(17,155,o),
(16,155,c),
(11,134,o),
(6,113,o),
(0,93,cs),
(-1,89,o),
(2,87,o),
(6,86,cs),
(108,53,o),
(211,19,o),
(315,-11,c),
(408,28,o),
(502,74,o),
(573,146,c)
);
},
{
closed = 1;
nodes = (
(178,663,o),
(154,663,o),
(131,663,c),
(120,653,o),
(60,588,o),
(48,579,cs),
(38,570,o),
(25,555,o),
(38,553,cs),
(61,551,o),
(84,550,o),
(106,547,c),
(118,561,o),
(189,647,o),
(201,660,c)
);
},
{
closed = 1;
nodes = (
(168,636,o),
(168,637,o),
(168,637,c),
(168,637,o),
(168,636,o),
(167,636,c)
);
},
{
closed = 1;
nodes = (
(569,590,o),
(576,586,o),
(579,584,cs),
(583,581,o),
(576,586,o),
(572,588,cs)
);
},
{
closed = 1;
nodes = (
(269,363,o),
(269,362,o),
(269,362,c),
(269,362,o),
(269,363,o),
(269,363,c)
);
},
{
closed = 1;
nodes = (
(381,235,o),
(365,296,o),
(346,355,c),
(366,346,o),
(475,308,o),
(494,297,c),
(479,280,o),
(406,188,o),
(389,173,c)
);
},
{
closed = 1;
nodes = (
(380,136,o),
(382,137,o),
(382,137,c),
(381,137,o),
(381,136,o),
(380,136,c)
);
}
);
width = 718;
}
);
note = D;
unicode = (68,100);
},
{
glyphname = E;
layers = (
{
layerId = m01;
shapes = (
{
closed = 1;
nodes = (
(40,597,o),
(40,642,o),
(41,687,cs),
(41,694,o),
(33,692,o),
(27,693,cs),
(14,696,o),
(2,685,o),
(1,672,cs),
(0,656,o),
(9,567,o),
(10,551,c),
(20,551,o),
(29,551,o),
(39,551,c)
);
},
{
closed = 1;
nodes = (
(206,598,o),
(212,640,o),
(219,682,cs),
(220,686,o),
(219,688,o),
(215,689,c),
(179,691,o),
(143,692,o),
(106,692,c),
(106,672,o),
(100,572,o),
(103,553,c),
(117,553,o),
(186,553,o),
(200,555,c)
);
},
{
closed = 1;
nodes = (
(506,-42,o),
(569,-6,o),
(607,45,c),
(617,34,o),
(620,18,o),
(625,4,cs),
(627,-3,o),
(640,-10,o),
(647,-6,cs),
(666,6,o),
(758,74,o),
(775,89,cs),
(786,99,o),
(795,116,o),
(781,120,cs),
(777,121,o),
(768,133,o),
(765,136,cs),
(719,192,o),
(689,260,o),
(659,325,cs),
(655,335,o),
(649,350,o),
(639,346,cs),
(621,341,o),
(551,297,o),
(536,286,cs),
(516,271,o),
(393,177,o),
(373,162,cs),
(335,135,o),
(294,113,o),
(254,90,c),
(228,107,o),
(240,172,o),
(243,202,cs),
(245,223,o),
(282,228,o),
(303,233,cs),
(343,242,o),
(383,252,o),
(423,264,c),
(418,283,o),
(403,330,o),
(386,339,cs),
(379,342,o),
(370,342,o),
(362,340,cs),
(347,338,o),
(270,311,o),
(255,306,c),
(257,317,o),
(271,379,o),
(273,389,c),
(274,390,o),
(276,391,o),
(276,391,c),
(281,397,o),
(287,399,o),
(294,396,c),
(320,389,o),
(471,355,o),
(497,349,cs),
(501,348,o),
(504,348,o),
(506,352,cs),
(520,384,o),
(531,417,o),
(542,449,cs),
(563,510,o),
(581,571,o),
(600,632,c),
(554,649,o),
(326,678,o),
(277,683,c),
(272,659,o),
(250,544,o),
(240,522,cs),
(238,518,o),
(236,499,o),
(234,495,cs),
(232,492,o),
(217,488,o),
(212,486,cs),
(161,466,o),
(109,445,o),
(56,429,cs),
(49,427,o),
(41,422,o),
(40,415,cs),
(37,373,o),
(45,330,o),
(53,289,cs),
(67,207,o),
(93,121,o),
(149,60,cs),
(186,19,o),
(236,-11,o),
(288,-31,cs),
(337,-50,o),
(392,-60,o),
(443,-52,cs)
);
},
{
closed = 1;
nodes = (
(472,526,o),
(471,525,o),
(471,524,c),
(471,525,o),
(470,525,o),
(470,526,c),
(470,526,o),
(472,526,o),
(472,526,c)
);
},
{
closed = 1;
nodes = (
(374,480,o),
(376,477,o),
(376,477,c),
(375,477,o),
(375,477,o),
(375,477,c),
(375,477,o),
(374,480,o),
(374,480,c)
);
},
{
closed = 1;
nodes = (
(74,306,o),
(79,292,o),
(77,293,c),
(77,293,o),
(76,300,o),
(75,302,cs)
);
}
);
width = 778;
}
);
note = E;
unicode = (69,101,200,201,202,203,232,233,234,235);
},
{
glyphname = F;
layers = (
{
layerId = m01;
shapes = (
{
closed = 1;
nodes = (
(440,-123,o),
(579,-14,o),
(601,6,cs),
(608,12,o),
(626,31,o),
(628,39,cs),
(631,58,o),
(599,96,o),
(588,112,cs),
(578,126,o),
(524,212,o),
(514,227,c),
(529,223,o),
(543,220,o),
(557,217,cs),
(565,216,o),
(611,210,o),
(619,208,cs),
(625,206,o),
(635,205,o),
(632,212,cs),
(606,274,o),
(583,339,o),
(548,397,cs),
(547,399,o),
(546,403,o),
(545,401,cs),
(539,390,o),
(493,342,o),
(486,332,cs),
(475,316,o),
(458,319,o),
(457,339,c),
(437,381,o),
(417,424,o),
(397,466,cs),
(396,468,o),
(394,472,o),
(396,471,cs),
(486,432,o),
(592,422,o),
(690,437,c),
(690,435,o),
(692,435,o),
(692,433,cs),
(691,426,o),
(690,386,o),
(691,379,c),
(701,377,o),
(712,375,o),
(722,373,cs),
(726,372,o),
(729,372,o),
(730,376,cs),
(734,390,o),
(757,474,o),
(760,488,cs),
(764,505,o),
(785,611,o),
(789,629,c),
(779,635,o),
(738,634,o),
(726,634,cs),
(671,634,o),
(616,636,o),
(562,642,cs),
(509,648,o),
(457,661,o),
(406,675,c),
(407,675,o),
(403,676,o),
(402,676,c),
(397,674,o),
(390,660,o),
(387,657,cs),
(385,654,o),
(389,654,o),
(388,653,c),
(382,650,o),
(368,633,o),
(364,627,cs),
(331,580,o),
(288,540,o),
(242,506,cs),
(217,488,o),
(189,476,o),
(163,461,c),
(178,409,o),
(206,361,o),
(229,311,cs),
(238,292,o),
(291,170,o),
(301,151,c),
(302,147,o),
(304,144,o),
(299,144,cs),
(257,141,o),
(215,138,o),
(172,136,cs),
(170,136,o),
(171,134,o),
(170,134,c),
(245,37,o),
(322,-58,o),
(403,-150,cs),
(410,-158,o),
(416,-152,o),
(418,-142,c)
);
},
{
closed = 1;
nodes = (
(731,606,o),
(730,606,o),
(730,606,c),
(730,606,o),
(731,606,o),
(731,606,c)
);
},
{
closed = 1;
nodes = (
(361,486,o),
(373,463,o),
(375,459,c),
(369,469,o),
(364,479,o),
(359,490,cs)
);
},
{
closed = 1;
nodes = (
(295,454,o),
(295,451,o),
(296,452,c),
(295,452,o),
(295,453,o),
(294,454,c)
);
},
{
closed = 1;
nodes = (
(294,269,o),
(296,266,o),
(297,266,c),
(297,266,o),
(297,266,o),
(297,266,c),
(297,266,o),
(294,269,o),
(295,269,c)
);
},
{
closed = 1;
nodes = (
(170,-1,o),
(191,9,o),
(211,20,c),
(179,62,o),
(147,104,o),
(114,146,cs),
(104,159,o),
(43,224,o),
(32,235,c),
(19,226,o),
(5,218,o),
(-8,209,c),
(4,184,o),
(74,30,o),
(86,5,cs),
(91,-7,o),
(97,-21,o),
(109,-25,cs),
(118,-27,o),
(142,-17,o),
(150,-12,cs)
);
},
{
closed = 1;
nodes = (
(164,39,o),
(163,43,o),
(163,43,c),
(162,42,o),
(164,41,o),
(165,42,c),
(165,42,o),
(167,40,o),
(167,40,c),
(167,39,o),
(164,40,o),
(164,39,c)
);
},
{
closed = 1;
nodes = (
(512,24,o),
(512,24,o),
(512,25,c),
(512,25,o),
(512,24,o),
(513,24,c)
);
},
{
closed = 1;
nodes = (
(419,-108,o),
(419,-109,o),
(419,-109,c),
(419,-109,o),
(419,-109,o),
(419,-108,c)
);
}
);
width = 785;
}
);
note = F;
unicode = (70,102);
},
{
glyphname = G;
layers = (
{
layerId = m01;
shapes = (
{
closed = 1;
nodes = (
(466,-34,o),
(495,-21,o),
(519,-4,cs),
(543,12,o),
(563,33,o),
(583,55,c),
(586,45,o),
(589,36,o),
(592,26,cs),
(593,21,o),
(593,21,o),
(599,24,cs),
(680,64,o),
(760,102,o),
(843,137,c),
(829,221,o),
(814,305,o),
(798,388,cs),
(796,401,o),
(792,416,o),
(779,414,cs),
(775,413,o),
(757,405,o),
(753,404,cs),
(655,370,o),
(548,363,o),
(445,372,cs),
(407,375,o),
(368,381,o),
(332,394,c),
(328,383,o),
(307,320,o),
(303,310,c),
(317,301,o),
(362,251,o),
(372,238,cs),
(375,234,o),
(373,234,o),
(368,236,cs),
(319,252,o),
(270,271,o),
(223,292,cs),
(219,294,o),
(219,297,o),
(221,301,cs),
(232,326,o),
(302,466,o),
(315,491,cs),
(317,495,o),
(318,496,o),
(323,493,cs),
(387,463,o),
(453,437,o),
(521,418,cs),
(525,417,o),
(527,420,o),
(529,423,cs),
(557,477,o),
(586,529,o),
(614,582,c),
(617,586,o),
(614,587,o),
(610,587,cs),
(519,597,o),
(428,619,o),
(342,649,cs),
(333,652,o),
(334,652,o),
(329,645,cs),
(242,514,o),
(116,412,o),
(-9,318,c),
(17,293,o),
(139,134,o),
(163,108,cs),
(207,61,o),
(255,16,o),
(311,-13,cs),
(349,-32,o),
(394,-44,o),
(437,-38,cs)
);
},
{
closed = 1;
nodes = (
(614,404,o),
(615,405,o),
(616,407,cs),
(629,428,o),
(697,548,o),
(707,571,c),
(716,575,o),
(723,581,o),
(714,581,cs),
(692,581,o),
(671,582,o),
(649,584,c),
(637,561,o),
(567,433,o),
(556,410,c),
(565,408,o),
(573,406,o),
(581,404,cs),
(595,401,o),
(610,389,o),
(614,402,c)
);
},
{
closed = 1;
nodes = (
(696,-18,o),
(756,-4,o),
(816,9,cs),
(823,10,o),
(829,10,o),
(836,12,cs),
(837,12,o),
(840,14,o),
(841,13,cs),
(850,6,o),
(863,14,o),
(861,26,cs),
(860,36,o),
(850,96,o),
(848,107,c),
(764,71,o),
(683,32,o),
(601,-8,c),
(602,-14,o),
(608,-34,o),
(613,-38,cs),
(621,-45,o),
(632,-41,o),
(637,-32,c)
);
},
{
closed = 1;
nodes = (
(826,74,o),
(826,74,o),
(826,74,c),
(826,74,o),
(826,74,o),
(826,74,c)
);
},
{
closed = 1;
nodes = (
(834,36,o),
(832,35,o),
(832,35,c),
(832,35,o),
(833,36,o),
(833,36,c)
);
}
);
width = 861;
}
);
note = G;
unicode = (71,103);
},
{
glyphname = H;
layers = (
{
layerId = m01;
shapes = (
{
closed = 1;
nodes = (
(334,645,o),
(456,687,o),
(476,694,c),
(472,707,o),
(464,751,o),
(454,759,cs),
(448,764,o),
(431,765,o),
(425,761,cs),
(424,760,o),
(418,761,o),
(416,761,c),
(414,760,o),
(412,759,o),
(410,758,c),
(347,746,o),
(284,734,o),
(222,719,cs),
(201,713,o),
(90,681,o),
(69,672,cs),
(62,669,o),
(19,648,o),
(12,644,cs),
(4,640,o),
(-11,638,o),
(-8,629,cs),
(5,595,o),
(17,561,o),
(30,527,c),
(125,564,o),
(219,600,o),
(314,637,cs)
);
},
{
closed = 1;
nodes = (
(422,735,o),
(423,735,o),
(423,734,c),
(422,734,o),
(423,736,o),
(422,735,c)
);
},
{
closed = 1;
nodes = (
(377,20,o),
(388,25,o),
(388,34,cs),
(387,89,o),
(378,145,o),
(376,201,cs),
(374,251,o),
(373,301,o),
(368,350,c),
(427,323,o),
(486,296,o),
(540,262,c),
(528,230,o),
(517,197,o),
(508,164,cs),
(494,114,o),
(488,61,o),
(486,9,cs),
(486,5,o),
(485,1,o),
(489,1,cs),
(623,-3,o),
(757,2,o),
(891,4,cs),
(897,4,o),
(902,0,o),
(901,7,cs),
(899,19,o),
(889,93,o),
(887,105,cs),
(886,116,o),
(873,116,o),
(862,115,cs),
(855,114,o),
(813,108,o),
(806,107,cs),
(804,107,o),
(799,105,o),
(799,108,cs),
(798,135,o),
(796,300,o),
(795,327,cs),
(795,330,o),
(791,340,o),
(792,342,c),
(792,344,o),
(794,346,o),
(793,349,cs),
(791,360,o),
(768,377,o),
(758,382,cs),
(742,390,o),
(648,425,o),
(632,432,cs),
(576,456,o),
(520,481,o),
(472,519,cs),
(471,520,o),
(468,523,o),
(466,523,cs),
(465,523,o),
(459,517,o),
(458,516,c),
(454,515,o),
(450,515,o),
(446,513,cs),
(439,510,o),
(406,487,o),
(400,482,cs),
(383,469,o),
(367,454,o),
(352,439,c),
(349,470,o),
(347,502,o),
(344,534,cs),
(343,542,o),
(356,546,o),
(363,550,cs),
(369,554,o),
(402,573,o),
(408,577,cs),
(409,578,o),
(414,585,o),
(416,586,cs),
(426,591,o),
(486,625,o),
(496,630,c),
(495,634,o),
(487,657,o),
(485,661,cs),
(484,665,o),
(482,664,o),
(478,663,cs),
(460,656,o),
(347,618,o),
(329,611,cs),
(301,600,o),
(133,535,o),
(105,524,c),
(134,419,o),
(148,311,o),
(166,204,c),
(167,201,o),
(169,196,o),
(167,196,cs),
(147,198,o),
(128,199,o),
(108,200,c),
(106,191,o),
(94,131,o),
(92,121,c),
(145,99,o),
(197,73,o),
(246,43,cs),
(271,28,o),
(298,14,o),
(317,-8,cs),
(322,-13,o),
(326,-21,o),
(331,-16,cs),
(344,-6,o),
(357,4,o),
(370,14,cs)
);
},
{
closed = 1;
nodes = (
(21,631,o),
(16,631,o),
(17,630,c),
(18,631,o),
(20,632,o),
(20,632,c)
);
},
{
closed = 1;
nodes = (
(583,610,o),
(585,612,o),
(585,612,c),
(584,611,o),
(581,611,o),
(582,610,c)
);
},
{
closed = 1;
nodes = (
(350,370,o),
(353,370,o),
(354,371,c),
(354,370,o),
(355,370,o),
(356,369,c),
(356,369,o),
(350,371,o),
(350,371,c)
);
},
{
closed = 1;
nodes = (
(562,272,o),
(562,269,o),
(561,269,cs),
(559,269,o),
(564,272,o),
(563,272,cs)
);
},
{
closed = 1;
nodes = (
(697,111,o),
(691,104,o),
(693,108,cs),
(694,110,o),
(697,114,o),
(697,114,c)
);
},
{
closed = 1;
nodes = (
(778,94,o),
(777,94,o),
(777,93,cs),
(777,95,o),
(777,96,o),
(777,98,c)
);
},
{
closed = 1;
nodes = (
(866,90,o),
(867,92,o),
(867,91,c),
(867,91,o),
(867,91,o),
(866,91,c)
);
}
);
width = 893;
}
);
note = H;
unicode = (72,104);
},
{
glyphname = I;
layers = (
{
layerId = m01;
shapes = (
{
closed = 1;
nodes = (
(345,591,o),
(357,625,o),
(342,642,cs),
(337,649,o),
(310,665,o),
(303,669,cs),
(251,696,o),
(189,664,o),
(163,611,cs),
(160,606,o),
(155,591,o),
(157,585,cs),
(162,574,o),
(168,563,o),
(175,553,cs),
(187,537,o),
(210,527,o),
(231,525,cs),
(261,522,o),
(315,547,o),
(332,572,cs)
);
},
{
closed = 1;
nodes = (
(48,661,o),
(46,660,o),
(46,660,c),
(45,661,o),
(44,660,o),
(44,659,c),
(44,660,o),
(46,660,o),
(46,659,c),
(46,660,o),
(47,661,o),
(47,661,c)
);
},
{
closed = 1;
nodes = (
(100,336,o),
(299,428,o),
(332,443,cs),
(382,466,o),
(434,487,o),
(485,507,c),
(478,521,o),
(472,535,o),
(466,549,cs),
(464,554,o),
(460,558,o),
(458,562,cs),
(455,568,o),
(447,570,o),
(441,569,cs),
(414,566,o),
(387,563,o),
(361,561,c),
(334,521,o),
(280,493,o),
(232,495,cs),
(201,496,o),
(167,513,o),
(149,538,cs),
(148,540,o),
(143,539,o),
(141,539,cs),
(96,534,o),
(51,530,o),
(6,530,c),
(26,464,o),
(46,398,o),
(66,333,cs),
(68,328,o),
(62,320,o),
(67,322,cs)
);
},
{
closed = 1;
nodes = (
(41,546,o),
(35,543,o),
(37,542,c),
(36,542,o),
(38,543,o),
(39,543,c),
(38,544,o),
(40,546,o),
(39,547,c)
);
},
{
closed = 1;
nodes = (
(566,228,o),
(554,240,o),
(549,248,cs),
(539,263,o),
(531,279,o),
(521,295,cs),
(519,299,o),
(517,301,o),
(514,298,cs),
(506,291,o),
(465,252,o),
(459,244,cs),
(456,241,o),
(456,237,o),
(453,235,cs),
(448,230,o),
(443,226,o),
(438,222,c),
(435,218,o),
(434,220,o),
(432,225,cs),
(424,247,o),
(374,379,o),
(365,401,cs),
(363,408,o),
(357,414,o),
(357,421,c),
(335,412,o),
(208,353,o),
(187,343,c),
(191,294,o),
(194,244,o),
(196,195,cs),
(197,187,o),
(200,172,o),
(192,172,cs),
(168,172,o),
(144,178,o),
(120,183,cs),
(103,186,o),
(86,194,o),
(69,194,c),
(61,177,o),
(14,83,o),
(8,64,c),
(119,11,o),
(231,-40,o),
(340,-96,c),
(405,15,o),
(478,122,o),
(560,221,cs)
);
},
{
closed = 1;
nodes = (
(432,121,o),
(432,121,o),
(432,121,c),
(432,121,o),
(432,121,o),
(432,121,c)
);
},
{
closed = 1;
nodes = (
(411,28,o),
(408,25,o),
(408,24,c),
(411,33,o),
(415,35,o),
(410,27,c)
);
}
);
width = 556;
}
);
note = I;
unicode = (73,105,204,205,206,207,236,237,238,239);
},
{
glyphname = J;
layers = (
{
layerId = m01;
shapes = (
{
closed = 1;
nodes = (
(534,599,o),
(534,599,o),
(532,604,cs),
(516,642,o),
(500,680,o),
(485,719,cs),
(483,723,o),
(481,725,o),
(477,723,cs),
(430,706,o),
(152,606,o),
(106,587,c),
(135,539,o),
(164,492,o),
(195,445,cs),
(197,441,o),
(199,439,o),
(203,441,cs),
(311,493,o),
(418,547,o),
(528,596,cs)
);
},
{
closed = 1;
nodes = (
(479,678,o),
(480,679,o),
(480,679,c),
(480,679,o),
(479,678,o),
(479,679,c)
);
},
{
closed = 1;
nodes = (
(516,-44,o),
(544,-40,o),
(565,-23,cs),
(568,-21,o),
(569,-17,o),
(572,-15,cs),
(603,9,o),
(635,35,o),
(655,69,cs),
(684,118,o),
(696,181,o),
(684,236,cs),
(673,284,o),
(644,326,o),
(614,365,cs),
(591,395,o),
(569,425,o),
(543,452,c),
(557,459,o),
(572,465,o),
(585,473,cs),
(587,474,o),
(586,478,o),
(585,480,cs),
(575,504,o),
(564,527,o),
(554,550,c),
(469,512,o),
(383,474,o),
(298,434,c),
(304,427,o),
(310,420,o),
(317,414,cs),
(326,407,o),
(350,366,o),
(355,356,cs),
(377,317,o),
(398,276,o),
(404,232,cs),
(409,194,o),
(405,136,o),
(369,123,cs),
(364,121,o),
(360,117,o),
(354,115,cs),
(340,112,o),
(322,116,o),
(311,126,cs),
(281,157,o),
(284,252,o),
(293,294,cs),
(294,298,o),
(295,302,o),
(292,304,cs),
(265,319,o),
(238,334,o),
(211,348,cs),
(207,350,o),
(206,345,o),
(204,342,cs),
(197,333,o),
(166,294,o),
(157,287,cs),
(127,263,o),
(96,240,o),
(65,218,cs),
(55,211,o),
(1,174,o),
(-8,167,c),
(4,146,o),
(15,126,o),
(28,105,c),
(46,112,o),
(63,122,o),
(79,131,c),
(121,79,o),
(173,33,o),
(229,-4,cs),
(270,-31,o),
(320,-43,o),
(368,-51,cs),
(408,-57,o),
(450,-61,o),
(490,-51,cs)
);
},
{
closed = 1;
nodes = (
(298,389,o),
(298,389,o),
(298,388,c),
(298,389,o),
(298,389,o),
(297,390,c)
);
},
{
closed = 1;
nodes = (
(82,388,o),
(80,384,o),
(81,383,c),
(81,383,o),
(85,383,o),
(85,383,c),
(84,382,o),
(84,386,o),
(83,387,cs)
);
}
);
width = 688;
}
);
note = J;
unicode = (74,106);
},
{
glyphname = K;
layers = (
{
layerId = m01;
shapes = (
{
closed = 1;
nodes = (
(636,-29,o),
(689,40,o),
(701,54,cs),
(747,109,o),
(795,162,o),
(841,218,c),
(821,238,o),
(801,258,o),
(782,279,cs),
(776,285,o),
(774,284,o),
(769,276,c),
(769,275,o),
(769,271,o),
(767,270,cs),
(762,267,o),
(747,250,o),
(743,245,cs),
(728,229,o),
(714,213,o),
(700,197,c),
(678,207,o),
(568,219,o),
(543,223,c),
(601,267,o),
(665,309,o),
(708,368,cs),
(713,374,o),
(715,380,o),
(708,384,cs),
(627,432,o),
(546,481,o),
(465,530,cs),
(461,532,o),
(465,522,o),
(464,519,c),
(464,520,o),
(462,517,o),
(461,516,cs),
(430,474,o),
(400,432,o),
(375,386,cs),
(371,380,o),
(372,372,o),
(368,366,c),
(364,494,o),
(364,623,o),
(368,751,c),
(345,746,o),
(259,694,o),
(239,682,cs),
(156,632,o),
(75,580,o),
(1,518,cs),
(-2,515,o),
(-3,514,o),
(-1,509,c),
(6,476,o),
(14,444,o),
(21,411,cs),
(23,404,o),
(30,404,o),
(37,406,cs),
(43,408,o),
(77,425,o),
(83,429,c),
(88,431,o),
(88,431,o),
(90,425,cs),
(129,314,o),
(167,204,o),
(205,93,c),
(158,99,o),
(112,105,o),
(65,110,c),
(64,99,o),
(53,39,o),
(51,28,c),
(67,26,o),
(155,12,o),
(171,11,cs),
(255,6,o),
(339,-2,o),
(423,-2,cs),
(430,-2,o),
(439,-2,o),
(437,5,cs),
(429,32,o),
(423,60,o),
(417,87,cs),
(414,100,o),
(413,120,o),
(424,112,cs),
(450,92,o),
(473,67,o),
(495,42,cs),
(508,28,o),
(584,-51,o),
(597,-65,c),
(606,-58,o),
(612,-46,o),
(621,-40,cs)
);
},
{
closed = 1;
nodes = (
(108,440,o),
(109,439,o),
(109,438,c),
(110,438,o),
(107,441,o),
(108,441,c)
);
},
{
closed = 1;
nodes = (
(388,317,o),
(392,321,o),
(393,322,c),
(397,323,o),
(405,321,o),
(408,319,cs),
(428,306,o),
(448,293,o),
(469,280,cs),
(476,275,o),
(488,273,o),
(482,266,cs),
(473,256,o),
(418,197,o),
(408,187,cs),
(405,183,o),
(404,183,o),
(403,189,cs),
(401,205,o),
(391,300,o),
(388,316,cs)
);
},
{
closed = 1;
nodes = (
(571,-20,o),
(570,-19,o),
(570,-19,c),
(570,-19,o),
(571,-19,o),
(571,-19,c)
);
}
);
width = 832;
}
);
note = K;
unicode = (75,107);
},
{
glyphname = L;
layers = (
{
layerId = m01;
shapes = (
{
closed = 1;
nodes = (
(724,131,o),
(641,322,o),
(628,355,c),
(626,358,o),
(623,358,o),
(619,358,c),
(605,355,o),
(525,342,o),
(512,339,cs),
(504,338,o),
(510,326,o),
(510,318,cs),
(511,306,o),
(520,244,o),
(523,232,c),
(439,212,o),
(355,195,o),
(271,180,c),
(282,193,o),
(350,276,o),
(361,290,cs),
(372,303,o),
(389,312,o),
(397,327,c),
(398,331,o),
(399,336,o),
(403,339,cs),
(406,341,o),
(404,345,o),
(403,348,cs),
(366,466,o),
(330,585,o),
(294,703,cs),
(292,711,o),
(284,707,o),
(278,703,cs),
(272,700,o),
(264,702,o),
(258,698,cs),
(252,693,o),
(219,681,o),
(212,678,cs),
(159,654,o),
(107,629,o),
(52,611,cs),
(34,605,o),
(13,603,o),
(-3,592,c),
(-4,592,o),
(-4,590,o),
(-5,589,c),
(4,562,o),
(13,534,o),
(22,506,cs),
(28,488,o),
(54,494,o),
(72,497,c),
(86,466,o),
(145,288,o),
(156,256,cs),
(158,249,o),
(161,228,o),
(160,221,c),
(152,193,o),
(75,114,o),
(55,92,c),
(60,79,o),
(66,66,o),
(71,53,c),
(81,52,o),
(139,45,o),
(149,44,cs),
(275,25,o),
(400,5,o),
(525,-12,cs),
(529,-13,o),
(533,-12,o),
(537,-10,cs),
(605,25,o),
(672,61,o),
(739,98,c)
);
},
{
closed = 1;
nodes = (
(197,538,o),
(198,536,o),
(196,540,cs),
(194,546,o),
(195,548,o),
(196,542,cs)
);
},
{
closed = 1;
nodes = (
(830,156,o),
(825,168,o),
(824,170,cs),
(793,237,o),
(761,303,o),
(728,368,cs),
(725,374,o),
(725,374,o),
(719,373,cs),
(712,372,o),
(667,366,o),
(660,365,cs),
(653,364,o),
(653,356,o),
(657,349,cs),
(699,274,o),
(732,194,o),
(770,116,c),
(791,128,o),
(811,140,o),
(831,153,c)
);
},
{
closed = 1;
nodes = (
(171,292,o),
(170,290,o),
(170,289,c),
(170,290,o),
(170,291,o),
(170,292,c)
);
},
{
closed = 1;
nodes = (
(545,208,o),
(545,207,o),
(545,206,c),
(544,209,o),
(546,208,o),
(545,209,c)
);
},
{
closed = 1;
nodes = (
(72,73,o),
(73,77,o),
(74,76,c),
(74,76,o),
(75,74,o),
(76,74,c),
(75,74,o),
(72,73,o),
(71,74,c)
);
},
{
closed = 1;
nodes = (
(554,62,o),
(552,63,o),
(552,64,c),
(552,64,o),
(554,63,o),
(554,63,c)
);
},
{
closed = 1;
nodes = (
(662,59,o),
(663,60,o),
(665,61,c),
(664,61,o),
(661,59,o),
(660,58,c)
);
}
);
width = 824;
}
);
note = L;
unicode = (76,108);
},
{
glyphname = M;
layers = (
{
layerId = m01;
shapes = (
{
closed = 1;
nodes = (
(890,-1,o),
(982,158,o),
(998,185,cs),
(1001,189,o),
(1007,197,o),
(1005,202,cs),
(988,244,o),
(973,287,o),
(959,330,c),
(943,317,o),
(929,303,o),
(912,292,c),
(909,289,o),
(907,288,o),
(905,292,c),
(879,378,o),
(851,463,o),
(834,551,c),
(856,547,o),
(877,543,o),
(899,539,c),
(894,556,o),
(865,652,o),
(862,670,c),
(860,675,o),
(860,676,o),
(856,675,c),
(729,669,o),
(601,665,o),
(474,674,c),
(470,667,o),
(466,659,o),
(461,652,cs),
(459,649,o),
(456,645,o),
(458,643,cs),
(468,635,o),
(492,641,o),
(486,630,cs),
(480,620,o),
(475,609,o),
(470,598,cs),
(468,593,o),
(467,594,o),
(464,589,cs),
(426,527,o),
(395,460,o),
(369,391,c),
(368,386,o),
(367,385,o),
(365,389,cs),
(323,468,o),
(284,549,o),
(242,628,c),
(241,631,o),
(237,631,o),
(233,629,cs),
(207,619,o),
(46,558,o),
(19,548,c),
(18,524,o),
(18,501,o),
(17,477,cs),
(17,472,o),
(30,476,o),
(34,472,cs),
(33,473,o),
(35,470,o),
(36,469,c),
(49,393,o),
(55,315,o),
(53,238,c),
(44,240,o),
(34,241,o),
(25,239,c),
(23,238,o),
(12,241,o),
(9,240,c),
(11,241,o),
(9,238,o),
(8,238,c),
(9,209,o),
(10,179,o),
(10,150,cs),
(10,144,o),
(11,144,o),
(16,143,cs),
(98,134,o),
(179,121,o),
(259,101,c),
(259,107,o),
(260,112,o),
(260,118,cs),
(258,202,o),
(257,286,o),
(251,370,cs),
(250,380,o),
(248,391,o),
(248,401,c),
(288,330,o),
(329,259,o),
(366,187,cs),
(371,177,o),
(393,128,o),
(400,119,cs),
(404,115,o),
(404,106,o),
(410,104,cs),
(461,92,o),
(511,77,o),
(561,63,c),
(565,97,o),
(566,132,o),
(566,166,cs),
(566,172,o),
(571,176,o),
(571,182,c),
(581,263,o),
(596,344,o),
(624,421,c),
(643,349,o),
(662,276,o),
(676,203,cs),
(677,198,o),
(673,196,o),
(668,195,cs),
(657,192,o),
(638,192,o),
(639,181,cs),
(639,133,o),
(640,85,o),
(642,37,c),
(714,13,o),
(785,-16,o),
(852,-51,cs),
(856,-53,o),
(859,-54,o),
(861,-51,cs),
(865,-43,o),
(873,-36,o),
(872,-27,c)
);
},
{
closed = 1;
nodes = (
(688,159,o),
(691,157,o),
(695,155,c),
(695,155,o),
(692,155,o),
(691,156,cs)
);
},
{
closed = 1;
nodes = (
(707,154,o),
(705,154,o),
(705,154,c),
(705,154,o),
(708,154,o),
(707,153,c)
);
},
{
closed = 1;
nodes = (
(256,129,o),
(258,132,o),
(259,132,c),
(258,132,o),
(258,130,o),
(258,129,c),
(258,130,o),
(255,129,o),
(255,130,c)
);
},
{
closed = 1;
nodes = (
(522,79,o),
(521,78,o),
(520,78,c),
(521,79,o),
(522,79,o),
(524,79,c)
);
},
{
closed = 1;
nodes = (
(200,-158,o),
(200,-159,o),
(200,-159,c),
(201,-159,o),
(200,-157,o),
(200,-157,c)
);
}
);
width = 1001;
}
);
note = M;
unicode = (77,109);
},
{
glyphname = N;
layers = (
{
layerId = m01;
shapes = (
{
closed = 1;
nodes = (
(141,-9,o),
(142,-11,o),
(147,-9,cs),
(199,17,o),
(253,40,o),
(308,61,cs),
(347,77,o),
(387,93,o),
(429,102,c),
(430,120,o),
(430,137,o),
(431,154,cs),
(431,161,o),
(431,161,o),
(426,161,cs),
(416,161,o),
(406,159,o),
(396,157,c),
(394,171,o),
(387,245,o),
(386,259,cs),
(381,320,o),
(380,382,o),
(384,443,cs),
(384,444,o),
(387,443,o),
(390,447,cs),
(393,453,o),
(399,456,o),
(404,460,cs),
(431,477,o),
(460,493,o),
(492,496,cs),
(508,497,o),
(529,488,o),
(536,473,cs),
(540,465,o),
(539,455,o),
(539,446,cs),
(537,425,o),
(521,303,o),
(518,283,cs),
(514,250,o),
(498,70,o),
(498,36,cs),
(498,27,o),
(508,21,o),
(515,15,cs),
(524,5,o),
(533,-4,o),
(543,-14,c),
(635,23,o),
(731,54,o),
(827,81,cs),
(836,83,o),
(834,100,o),
(834,109,c),
(837,133,o),
(839,157,o),
(841,181,cs),
(841,188,o),
(831,186,o),
(824,186,cs),
(791,188,o),
(758,189,o),
(724,191,c),
(724,209,o),
(721,318,o),
(721,336,c),
(727,337,o),
(733,341,o),
(739,342,cs),
(747,344,o),
(796,356,o),
(805,359,c),
(806,359,o),
(806,361,o),
(807,362,c),
(808,361,o),
(810,361,o),
(811,361,c),
(826,366,o),
(842,370,o),
(857,375,c),
(852,400,o),
(842,425,o),
(831,448,cs),
(797,524,o),
(745,587,o),
(678,635,c),
(674,639,o),
(651,655,o),
(645,657,cs),
(576,688,o),
(497,696,o),
(422,690,cs),
(312,681,o),
(207,640,o),
(106,597,c),
(107,584,o),
(116,522,o),
(120,509,c),
(145,515,o),
(174,518,o),
(196,507,cs),
(211,500,o),
(225,484,o),
(224,468,cs),
(223,442,o),
(184,402,o),
(162,389,c),
(160,387,o),
(150,382,o),
(148,381,c),
(146,379,o),
(147,375,o),
(147,373,cs),
(152,305,o),
(156,237,o),
(161,169,c),
(162,166,o),
(164,162,o),
(165,158,cs),
(165,155,o),
(166,134,o),
(167,130,cs),
(168,125,o),
(171,118,o),
(167,114,cs),
(156,105,o),
(104,52,o),
(95,41,c),
(106,22,o),
(117,2,o),
(129,-17,c),
(130,-17,o),
(137,-14,o),
(138,-13,cs)
);
},
{
closed = 1;
nodes = (
(92,520,o),
(74,637,o),
(72,657,cs),
(71,663,o),
(71,663,o),
(66,661,cs),
(42,652,o),
(17,642,o),
(-7,633,c),
(1,603,o),
(9,573,o),
(18,543,cs),
(20,533,o),
(40,481,o),
(44,471,c),
(60,483,o),
(77,492,o),
(96,500,c)
);
},
{
closed = 1;
nodes = (
(768,69,o),
(766,69,o),
(764,68,c),
(766,68,o),
(765,70,o),
(769,70,c)
);
}
);
width = 859;
}
);
note = N;
unicode = (78,110,209,241);
},
{
glyphname = O;
lastChange = "2023-11-19 19:09:12 +0000";
layers = (
{
layerId = m01;
shapes = (
{
closed = 1;
nodes = (
(278,600,o),
(424,597,o),
(428,604,cs),
(438,621,o),
(427,673,o),
(413,682,cs),
(404,688,o),
(368,683,o),
(358,682,cs),
(322,680,o),
(204,668,o),
(202,659,cs),
(200,649,o),
(209,610,o),
(211,600,cs),
(211,598,o),
(211,593,o),
(214,594,c)
);
},
{
closed = 1;
nodes = (
(510,11,o),
(594,49,o),
(644,112,cs),
(667,140,o),
(683,173,o),
(697,206,cs),
(718,256,o),
(737,311,o),
(734,366,cs),
(731,410,o),
(713,454,o),
(689,491,cs),
(654,546,o),
(603,590,o),
(551,629,cs),
(537,640,o),
(523,651,o),
(506,657,cs),
(501,659,o),
(494,659,o),
(491,654,cs),
(485,645,o),
(449,593,o),
(443,585,cs),
(441,582,o),
(440,578,o),
(435,578,cs),
(416,578,o),
(398,575,o),
(379,575,cs),
(270,573,o),
(162,559,o),
(55,543,c),
(35,447,o),
(16,350,o),
(1,252,c),
(25,216,o),
(51,181,o),
(82,151,cs),
(164,72,o),
(274,13,o),
(387,-5,cs),
(394,-6,o),
(423,-2,o),
(430,-1,cs)
);
},
{
closed = 1;
nodes = (
(337,133,o),
(309,159,o),
(287,189,cs),
(274,207,o),
(262,229,o),
(261,251,cs),
(258,292,o),
(278,331,o),
(291,370,cs),
(300,393,o),
(350,519,o),
(360,541,c),
(376,542,o),
(391,542,o),
(407,539,c),
(407,539,o),
(408,539,o),
(408,539,c),
(399,522,o),
(365,461,o),
(365,443,c),
(379,450,o),
(414,429,o),
(428,422,cs),
(433,420,o),
(436,415,o),
(441,413,cs),
(463,402,o),
(484,392,o),
(505,381,cs),
(510,378,o),
(510,378,o),
(508,373,cs),
(470,283,o),
(421,199,o),
(371,115,cs),
(369,112,o),
(368,107,o),
(365,109,cs)
);
}
);
width = 736;
}
);
note = O;
unicode = (79,111,210,211,212,213,214,216,242,243,244,245,246,248);
},
{
glyphname = P;
lastChange = "2023-11-19 19:09:38 +0000";
layers = (
{
layerId = m01;
shapes = (
{
closed = 1;
nodes = (
(156,705,l),
(153,706,o),
(151,701,o),
(149,699,cs),
(98,638,o),
(48,576,o),
(0,513,c),
(-2,509,o),
(-10,505,o),
(-6,503,cs),
(40,479,o),
(85,453,o),
(131,428,c),
(135,425,o),
(136,428,o),
(137,432,cs),
(168,511,o),
(197,591,o),
(225,670,c)
);
},
{
closed = 1;
nodes = (
(500,-157,o),
(501,-171,o),
(502,-169,cs),
(505,-162,o),
(500,-153,o),
(500,-146,c),
(498,-132,o),
(492,-56,o),
(491,-42,c),
(465,-32,o),
(439,-23,o),
(413,-13,cs),
(410,-12,o),
(400,-9,o),
(398,-6,cs),
(396,-2,o),
(396,13,o),
(396,17,cs),
(398,89,o),
(399,161,o),
(403,233,cs),
(403,236,o),
(407,230,o),
(410,228,cs),
(448,208,o),
(668,97,o),
(708,80,c),
(715,89,o),
(766,140,o),
(773,148,cs),
(818,201,o),
(866,253,o),
(898,314,cs),
(900,319,o),
(900,319,o),
(896,324,c),
(775,446,o),
(654,568,o),
(532,689,cs),
(528,693,o),
(528,693,o),
(522,689,cs),
(514,684,o),
(465,650,o),
(456,645,cs),
(452,642,o),
(447,642,o),
(443,639,cs),
(435,634,o),
(388,599,o),
(380,593,cs),
(378,592,o),
(375,589,o),
(374,591,c),
(371,593,o),
(369,597,o),
(366,599,cs),
(336,615,o),
(306,630,o),
(275,645,c),
(268,629,o),
(232,540,o),
(227,524,cs),
(181,389,o),
(133,255,o),
(90,119,cs),
(84,100,o),
(60,2,o),
(56,-17,c),
(76,-27,o),
(194,-74,o),
(215,-83,cs),
(304,-118,o),
(397,-144,o),
(489,-168,cs),
(495,-169,o),
(498,-166,o),
(500,-159,c)
);
},
{
closed = 1;
nodes = (
(409,342,o),
(408,344,o),
(408,350,cs),
(409,362,o),
(414,436,o),
(414,448,c),
(431,452,o),
(523,469,o),
(540,471,cs),
(545,471,o),
(546,469,o),
(547,465,cs),
(550,440,o),
(564,290,o),
(566,266,c),
(515,290,o),
(464,314,o),
(413,340,cs)
);
},
{
closed = 1;
nodes = (
(830,396,o),
(832,389,o),
(828,386,cs),
(822,382,o),
(824,385,o),
(828,391,c)
);
},
{
closed = 1;
nodes = (
(289,-100,o),
(345,-114,o),
(339,-112,cs),
(295,-101,ls)
);
}
);
width = 890;
}
);
note = P;
unicode = (80,112);
},
{
glyphname = Q;
lastChange = "2023-11-21 18:17:22 +0000";
layers = (
{
layerId = m01;
shapes = (
{
closed = 1;
nodes = (
(313,706,o),
(206,791,o),
(189,805,c),
(179,796,o),
(142,759,o),
(136,747,cs),
(127,730,o),
(141,710,o),
(159,718,c),
(166,714,o),
(195,698,o),
(204,698,c),
(245,693,o),
(286,689,o),
(327,684,cs),
(333,683,o),
(336,688,o),
(331,692,cs)
);
},
{
closed = 1;
nodes = (
(772,-112,o),
(834,-19,o),
(897,74,cs),
(908,89,o),
(913,114,o),
(895,110,c),
(824,146,l),
(816,149,o),
(803,155,o),
(798,149,cs),
(795,145,o),
(798,139,o),
(795,135,cs),
(786,125,o),
(778,114,o),
(770,103,c),
(754,112,o),
(664,169,o),
(649,178,c),
(646,179,o),
(648,183,o),
(649,186,cs),
(670,239,o),
(689,293,o),
(707,348,cs),
(721,393,o),
(734,440,o),
(740,488,cs),
(742,503,o),
(742,519,o),
(743,535,cs),
(744,541,o),
(744,541,o),
(738,544,c),
(486,657,l),
(481,659,o),
(476,659,o),
(471,660,cs),
(462,663,o),
(463,663,o),
(457,658,c),
(455,647,o),
(440,582,o),
(438,571,cs),
(435,555,o),
(420,550,o),
(409,562,cs),
(407,565,o),
(404,566,o),
(402,568,c),
(396,582,ls),
(395,584,o),
(391,582,o),
(388,581,cs),
(262,547,o),
(136,512,o),
(9,481,c),
(9,449,o),
(8,417,o),
(14,385,cs),
(34,281,o),
(62,174,o),
(119,85,cs),
(152,33,o),
(206,-18,o),
(267,-28,cs),
(324,-37,o),
(382,-24,o),
(437,-8,cs),
(459,-2,o),
(480,6,o),
(499,18,c),
(558,-56,o),
(617,-130,o),
(675,-205,cs),
(681,-213,o),
(702,-207,o),
(711,-206,c)
);
},
{
closed = 1;
nodes = (
(45,552,o),
(48,550,o),
(51,551,cs),
(75,556,o),
(99,554,o),
(122,558,cs),
(131,560,o),
(179,575,o),
(188,577,cs),
(352,618,l),
(349,620,o),
(347,623,o),
(345,626,c),
(343,633,o),
(344,646,o),
(337,646,cs),
(229,646,o),
(120,646,o),
(12,644,c),
(9,620,o),
(14,596,o),
(20,573,cs),
(23,561,o),
(30,546,o),
(42,550,c)
);
},
{
closed = 1;
nodes = (
(373,201,o),
(347,244,o),
(341,256,cs),
(319,301,o),
(307,351,o),
(302,402,cs),
(302,404,o),
(305,411,o),
(307,413,cs),
(317,423,o),
(383,485,o),
(393,496,c),
(388,479,o),
(384,462,o),
(379,445,cs),
(378,441,o),
(382,441,o),
(387,439,cs),
(393,437,o),
(403,437,o),
(407,431,cs),
(410,427,o),
(416,425,o),
(422,424,c),
(429,421,o),
(471,408,o),
(479,405,c),
(465,333,o),
(451,261,o),
(431,190,c),
(420,188,o),
(392,185,o),
(383,193,cs)
);
}
);
width = 896;
}
);
note = Q;
unicode = (81,113);
},
{
glyphname = R;
layers = (
{
layerId = m01;
shapes = (
{
closed = 1;
nodes = (
(332,8,o),
(315,25,o),
(311,29,c),
(319,65,o),
(331,99,o),
(341,134,c),
(341,137,o),
(342,141,o),
(344,139,cs),
(377,104,o),
(413,72,o),
(453,47,cs),
(521,5,o),
(598,-23,o),
(677,-35,cs),
(730,-44,o),
(784,-41,o),
(837,-38,cs),
(843,-38,o),
(843,-38,o),
(842,-33,cs),
(825,55,o),
(810,143,o),
(795,230,cs),
(794,237,o),
(793,246,o),
(786,246,c),
(766,243,o),
(745,241,o),
(725,239,c),
(726,225,o),
(726,211,o),
(727,197,c),
(728,193,o),
(729,187,o),
(724,187,cs),
(637,188,o),
(548,197,o),
(466,227,cs),
(453,232,o),
(440,237,o),
(429,245,cs),
(426,247,o),
(421,247,o),
(419,246,c),
(406,231,o),
(392,216,o),
(378,202,cs),
(370,194,o),
(355,176,o),
(358,188,cs),
(377,263,o),
(393,339,o),
(409,414,cs),
(410,420,o),
(406,431,o),
(411,427,cs),
(444,405,o),
(471,370,o),
(482,332,cs),
(486,318,o),
(486,302,o),
(484,288,cs),
(483,281,o),
(469,265,o),
(464,260,c),
(504,243,o),
(547,233,o),
(589,227,c),
(612,240,o),
(636,252,o),
(655,269,cs),
(675,286,o),
(693,305,o),
(708,326,cs),
(717,339,o),
(745,391,o),
(747,407,cs),
(748,415,o),
(754,449,o),
(752,456,cs),
(746,490,o),
(735,523,o),
(719,554,cs),
(717,557,o),
(711,570,o),
(708,573,cs),
(655,618,o),
(593,658,o),
(525,673,cs),
(470,685,o),
(408,678,o),
(354,658,cs),
(333,650,o),
(314,635,o),
(294,623,cs),
(292,622,o),
(289,616,o),
(287,617,cs),
(280,620,o),
(242,639,o),
(235,642,c),
(228,647,o),
(186,674,o),
(178,679,cs),
(175,681,o),
(172,682,o),
(170,678,cs),
(131,612,o),
(92,546,o),
(53,479,c),
(65,458,o),
(82,440,o),
(97,422,c),
(107,436,o),
(117,450,o),
(128,464,c),
(145,443,o),
(163,419,o),
(167,393,cs),
(172,361,o),
(171,327,o),
(163,296,cs),
(148,235,o),
(117,178,o),
(83,126,cs),
(81,122,o),
(79,120,o),
(75,122,cs),
(64,127,o),
(53,132,o),
(43,137,cs),
(36,141,o),
(31,131,o),
(26,125,cs),
(18,114,o),
(9,104,o),
(1,94,cs),
(-3,89,o),
(-10,84,o),
(-5,80,cs),
(88,3,o),
(201,-57,o),
(319,-81,c),
(329,-55,o),
(340,-30,o),
(350,-4,cs),
(352,2,o),
(342,2,o),
(337,5,cs)
);
},
{
closed = 1;
nodes = (
(625,575,o),
(627,574,o),
(628,574,c),
(626,572,o),
(625,577,o),
(624,576,c)
);
},
{
closed = 1;
nodes = (
(102,434,o),
(103,435,o),
(104,436,c),
(103,436,o),
(102,434,o),
(101,434,c)
);
},
{
closed = 1;
nodes = (
(951,-27,o),
(951,-28,o),
(950,-29,c),
(951,-29,o),
(951,-30,o),
(952,-30,c),
(951,-31,o),
(951,-27,o),
(950,-27,c)
);
},
{
closed = 1;
nodes = (
(920,-31,o),
(920,-33,o),
(919,-33,c),
(919,-32,o),
(922,-31,o),
(919,-31,cs)
);
}
);
width = 834;
}
);
note = R;
unicode = (82,114);
},
{
glyphname = S;
layers = (
{
layerId = m01;
shapes = (
{
closed = 1;
nodes = (
(613,-1,o),
(658,25,o),
(701,51,cs),
(754,81,o),
(800,126,o),
(831,178,cs),
(840,194,o),
(846,213,o),
(848,231,cs),
(848,234,o),
(853,247,o),
(853,249,c),
(862,291,o),
(844,342,o),
(812,370,cs),
(777,399,o),
(728,413,o),
(682,415,cs),
(590,418,o),
(499,403,o),
(407,392,cs),
(391,390,o),
(312,379,o),
(296,380,c),
(290,414,o),
(283,449,o),
(283,483,cs),
(283,489,o),
(283,489,o),
(288,487,cs),
(351,459,o),
(421,446,o),
(489,447,cs),
(550,448,o),
(613,456,o),
(669,478,cs),
(673,479,o),
(676,489,o),
(677,493,cs),
(684,518,o),
(735,653,o),
(744,678,c),
(716,684,o),
(688,689,o),
(659,694,cs),
(655,695,o),
(656,688,o),
(654,685,c),
(651,677,o),
(648,670,o),
(645,662,c),
(596,678,o),
(544,685,o),
(492,687,cs),
(435,689,o),
(376,679,o),
(323,660,cs),
(286,646,o),
(250,627,o),
(221,599,cs),
(201,579,o),
(187,554,o),
(175,528,cs),
(168,513,o),
(170,454,o),
(171,437,cs),
(172,427,o),
(177,391,o),
(182,382,cs),
(207,342,o),
(240,306,o),
(275,274,cs),
(278,271,o),
(281,269,o),
(284,267,c),
(330,285,o),
(374,308,o),
(422,318,cs),
(446,324,o),
(476,322,o),
(495,306,cs),
(509,293,o),
(506,269,o),
(493,254,cs),
(472,227,o),
(437,210,o),
(404,199,cs),
(361,185,o),
(310,186,o),
(267,200,c),
(266,201,o),
(270,202,o),
(269,202,c),
(248,213,o),
(230,229,o),
(213,245,cs),
(200,257,o),
(148,320,o),
(138,335,cs),
(135,341,o),
(129,336,o),
(123,333,cs),
(115,329,o),
(84,312,o),
(76,310,c),
(98,240,o),
(118,169,o),
(148,102,cs),
(149,100,o),
(152,92,o),
(153,91,cs),
(189,59,o),
(233,37,o),
(277,21,cs),
(326,4,o),
(377,-9,o),
(429,-13,cs),
(474,-17,o),
(519,-21,o),
(563,-12,cs)
);
},
{
closed = 1;
nodes = (
(298,471,o),
(299,471,o),
(300,471,c),
(293,474,o),
(291,471,o),
(298,471,c)
);
},
{
closed = 1;
nodes = (
(36,208,o),
(66,215,o),
(71,216,cs),
(74,217,o),
(74,220,o),
(72,224,c),
(65,246,o),
(58,269,o),
(51,291,c),
(34,279,o),
(15,271,o),
(-4,263,cs),
(-10,261,o),
(-6,254,o),
(-4,248,cs),
(-2,242,o),
(9,208,o),
(11,202,c),
(15,195,o),
(24,203,o),
(31,206,cs)
);
},
{
closed = 1;
nodes = (
(316,231,o),
(318,233,o),
(318,232,c),
(317,232,o),
(316,232,o),
(316,231,c)
);
},
{
closed = 1;
nodes = (
(40,47,o),
(41,45,o),
(42,44,c),
(41,45,o),
(40,46,o),
(39,48,c)
);
}
);
width = 853;
}
);
note = S;
unicode = (83,115);
},
{
glyphname = T;
layers = (
{
layerId = m01;
shapes = (
{
closed = 1;
nodes = (
(578,704,o),
(578,704,o),
(572,704,cs),
(550,704,o),
(527,704,o),
(504,704,cs),
(494,703,o),
(491,670,o),
(483,664,cs),
(477,659,o),
(476,651,o),
(482,649,cs),
(502,644,o),
(522,639,o),
(542,634,c),
(547,643,o),
(573,689,o),
(577,699,c)
);
},
{
closed = 1;
nodes = (
(648,351,o),
(647,354,o),
(648,356,c),
(649,362,o),
(657,384,o),
(658,389,cs),
(665,414,o),
(716,562,o),
(723,586,cs),
(725,592,o),
(723,594,o),
(718,593,cs),
(656,587,o),
(592,585,o),
(531,595,cs),
(501,599,o),
(325,644,o),
(296,650,cs),
(238,660,o),
(176,660,o),
(120,642,c),
(87,571,o),
(52,500,o),
(21,427,c),
(24,427,o),
(28,426,o),
(30,428,cs),
(32,430,o),
(33,432,o),
(35,432,cs),
(107,432,o),
(178,417,o),
(248,403,cs),
(330,386,o),
(412,368,o),
(496,359,cs),
(509,357,o),
(522,357,o),
(535,352,c),
(537,352,o),
(548,352,o),
(549,352,c),
(566,347,o),
(632,347,o),
(649,349,c)
);
},
{
closed = 1;
nodes = (
(215,637,o),
(218,636,o),
(218,637,c),
(217,636,o),
(216,637,o),
(215,637,c)
);
},
{
closed = 1;
nodes = (
(162,632,o),
(168,632,o),
(168,632,c),
(168,632,o),
(165,631,o),
(166,630,c),
(166,632,o),
(161,630,o),
(162,631,c)
);
},
{
closed = 1;
nodes = (
(689,570,o),
(689,569,o),
(689,569,c),
(689,569,o),
(689,570,o),
(689,570,c)
);
},
{
closed = 1;
nodes = (
(616,6,o),
(615,3,o),
(620,5,cs),
(641,14,o),
(661,24,o),
(682,35,c),
(689,127,o),
(698,220,o),
(715,311,c),
(696,307,o),
(677,303,o),
(659,299,c),
(651,279,o),
(643,259,o),
(635,239,c),
(624,238,o),
(565,228,o),
(554,227,cs),
(484,224,o),
(412,240,o),
(347,267,cs),
(343,269,o),
(344,274,o),
(347,277,cs),
(366,298,o),
(385,320,o),
(404,341,c),
(387,344,o),
(287,364,o),
(270,368,c),
(210,331,o),
(136,317,o),
(65,310,cs),
(62,310,o),
(58,308,o),
(57,305,cs),
(52,293,o),
(28,222,o),
(24,210,cs),
(23,206,o),
(30,198,o),
(32,194,cs),
(55,157,o),
(90,129,o),
(126,105,cs),
(179,69,o),
(238,43,o),
(298,21,cs),
(352,3,o),
(408,-12,o),
(465,-15,cs),
(516,-17,o),
(567,-10,o),
(615,6,c)
);
},
{
closed = 1;
nodes = (
(0,299,o),
(-1,298,o),
(-1,297,c),
(-1,298,o),
(0,299,o),
(0,299,c)
);
},
{
closed = 1;
nodes = (
(603,152,o),
(603,152,o),
(603,152,c),
(603,152,o),
(603,152,o),
(602,152,c)
);
},
{
closed = 1;
nodes = (
(486,117,o),
(488,117,o),
(490,116,c),
(489,117,o),
(485,117,o),
(484,117,cs)
);
},
{
closed = 1;
nodes = (
(386,109,o),
(385,109,o),
(383,109,c),
(385,109,o),
(386,109,o),
(387,108,c)
);
}
);
width = 732;
}
);
note = T;
unicode = (84,116);
},
{
glyphname = U;
layers = (
{
layerId = m01;
shapes = (
{
closed = 1;
nodes = (
(754,182,o),
(747,221,o),
(740,260,c),
(724,251,o),
(710,240,o),
(695,231,c),
(680,289,o),
(666,347,o),
(653,406,c),
(666,417,o),
(741,490,o),
(753,503,c),
(757,506,o),
(759,508,o),
(756,511,cs),
(737,529,o),
(629,638,o),
(611,657,c),
(567,633,o),
(526,603,o),
(486,573,cs),
(454,549,o),
(421,525,o),
(393,497,c),
(401,471,o),
(409,445,o),
(417,418,c),
(423,422,o),
(463,446,o),
(469,450,cs),
(474,453,o),
(474,452,o),
(473,447,cs),
(463,415,o),
(461,382,o),
(458,348,cs),
(455,294,o),
(455,239,o),
(459,185,c),
(425,188,o),
(389,197,o),
(362,217,cs),
(323,246,o),
(292,291,o),
(281,338,cs),
(276,362,o),
(280,387,o),
(284,411,cs),
(295,474,o),
(322,535,o),
(351,592,c),
(285,620,o),
(221,650,o),
(156,679,c),
(144,668,o),
(97,601,o),
(88,587,cs),
(71,561,o),
(55,533,o),
(39,506,c),
(45,495,o),
(52,485,o),
(59,475,cs),
(63,468,o),
(91,438,o),
(96,432,c),
(84,416,o),
(8,320,o),
(-4,305,c),
(27,262,o),
(59,220,o),
(96,182,cs),
(172,105,o),
(261,37,o),
(358,-11,cs),
(364,-14,o),
(369,-3,o),
(374,1,cs),
(391,14,o),
(400,35,o),
(413,52,cs),
(419,60,o),
(459,108,o),
(466,117,c),
(472,84,o),
(476,51,o),
(484,19,cs),
(485,13,o),
(486,13,o),
(491,11,c),
(535,1,o),
(579,-10,o),
(623,-20,c),
(667,36,o),
(712,92,o),
(763,143,c)
);
},
{
closed = 1;
nodes = (
(56,320,o),
(58,323,o),
(57,323,c),
(57,322,o),
(57,321,o),
(57,320,c)
);
},
{
closed = 1;
nodes = (
(832,204,o),
(833,205,o),
(831,210,cs),
(827,220,o),
(803,286,o),
(799,296,c),
(794,293,o),
(772,283,o),
(768,277,c),
(769,278,o),
(769,275,o),
(768,274,c),
(770,260,o),
(786,176,o),
(789,162,c),
(794,167,o),
(823,196,o),
(828,200,cs)
);
}
);
width = 827;
}
);
note = U;
unicode = (85,117,217,218,219,220,249,250,251,252);
},
{
glyphname = V;
layers = (
{
layerId = m01;
shapes = (
{
closed = 1;
nodes = (
(824,652,o),
(770,695,o),
(715,737,cs),
(710,741,o),
(710,741,o),
(705,739,cs),
(686,729,o),
(667,719,o),
(649,709,c),
(672,690,o),
(818,587,o),
(842,569,c),
(854,582,o),
(866,595,o),
(878,608,c)
);
},
{
closed = 1;
nodes = (
(749,589,o),
(684,640,o),
(620,692,c),
(606,685,o),
(593,677,o),
(580,670,c),
(604,645,o),
(752,515,o),
(777,492,c),
(789,507,o),
(801,522,o),
(813,536,c)
);
},
{
closed = 1;
nodes = (
(693,390,o),
(724,430,o),
(758,467,c),
(694,526,o),
(631,586,o),
(568,646,cs),
(564,650,o),
(563,650,o),
(558,647,cs),
(499,608,o),
(433,578,o),
(369,548,c),
(370,533,o),
(380,445,o),
(381,430,c),
(382,426,o),
(383,434,o),
(387,434,cs),
(393,433,o),
(422,428,o),
(427,427,cs),
(434,425,o),
(468,405,o),
(475,402,c),
(399,319,o),
(327,232,o),
(259,142,c),
(268,187,o),
(278,231,o),
(287,276,cs),
(292,298,o),
(316,387,o),
(312,409,cs),
(309,429,o),
(297,446,o),
(286,463,cs),
(251,519,o),
(214,574,o),
(177,629,c),
(167,618,o),
(109,551,o),
(99,541,cs),
(71,509,o),
(39,480,o),
(5,454,cs),
(0,450,o),
(-8,447,o),
(-9,441,cs),
(-10,436,o),
(1,428,o),
(5,424,cs),
(20,408,o),
(87,342,o),
(96,323,cs),
(100,313,o),
(107,267,o),
(108,256,cs),
(115,191,o),
(117,126,o),
(120,62,c),
(160,49,o),
(407,-29,o),
(448,-41,c),
(498,99,o),
(578,228,o),
(664,349,cs)
);
},
{
closed = 1;
nodes = (
(441,520,o),
(439,520,o),
(439,520,c),
(439,520,o),
(440,521,o),
(440,521,c)
);
},
{
closed = 1;
nodes = (
(111,408,o),
(109,409,o),
(109,409,c),
(109,409,o),
(111,409,o),
(110,408,c)
);
}
);
width = 866;
}
);
note = V;
unicode = (86,118);
},
{
glyphname = W;
layers = (
{
layerId = m01;
shapes = (
{
closed = 1;
nodes = (
(873,56,o),
(914,134,o),
(920,148,cs),
(950,219,o),
(964,297,o),
(967,374,cs),
(970,425,o),
(968,476,o),
(957,526,c),
(985,538,o),
(1013,551,o),
(1042,562,cs),
(1047,564,o),
(1047,565,o),
(1045,570,cs),
(1040,584,o),
(1011,666,o),
(1006,679,c),
(981,672,o),
(835,626,o),
(811,619,cs),
(720,594,o),
(628,568,o),
(537,543,cs),
(534,542,o),
(536,536,o),
(537,532,cs),
(546,502,o),
(554,472,o),
(562,441,c),
(581,446,o),
(601,448,o),
(619,441,cs),
(646,432,o),
(671,412,o),
(684,388,cs),
(697,362,o),
(698,331,o),
(696,302,cs),
(694,260,o),
(686,218,o),
(674,178,c),
(624,233,o),
(574,289,o),
(521,341,c),
(519,347,o),
(514,352,o),
(508,355,cs),
(492,363,o),
(485,382,o),
(471,392,c),
(459,321,o),
(445,249,o),
(422,181,c),
(387,184,o),
(353,186,o),
(319,189,c),
(333,220,o),
(347,252,o),
(361,283,cs),
(374,313,o),
(389,345,o),
(391,377,cs),
(392,401,o),
(383,426,o),
(370,446,cs),
(358,463,o),
(299,551,o),
(284,566,cs),
(277,573,o),
(271,585,o),
(264,577,cs),
(244,555,o),
(121,416,o),
(101,393,c),
(120,362,o),
(143,333,o),
(162,302,c),
(161,268,o),
(161,233,o),
(162,199,cs),
(162,194,o),
(159,195,o),
(154,195,cs),
(143,196,o),
(94,200,o),
(83,197,c),
(77,201,o),
(72,209,o),
(70,202,cs),
(66,191,o),
(53,127,o),
(50,116,cs),
(49,111,o),
(49,111,o),
(55,110,cs),
(201,84,o),
(345,47,o),
(483,-6,cs),
(487,-8,o),
(486,-10,o),
(491,-13,cs),
(502,-18,o),
(513,-22,o),
(525,-27,c),
(542,37,o),
(556,103,o),
(558,170,c),
(578,142,o),
(599,115,o),
(617,86,cs),
(645,40,o),
(669,-9,o),
(688,-59,c),
(714,-66,o),
(739,-72,o),
(764,-79,c),
(780,-61,o),
(855,20,o),
(866,42,cs)
);
},
{
closed = 1;
nodes = (
(701,619,o),
(744,631,o),
(786,643,c),
(743,632,o),
(701,620,o),
(659,608,c)
);
},
{
closed = 1;
nodes = (
(234,617,o),
(222,629,o),
(211,641,c),
(179,615,o),
(146,589,o),
(114,563,cs),
(99,551,o),
(11,486,o),
(-3,473,c),
(12,453,o),
(28,433,o),
(43,412,c),
(43,411,o),
(44,413,o),
(45,412,c),
(45,408,o),
(49,404,o),
(52,401,c),
(76,426,o),
(221,580,o),
(246,605,c)
);
},
{
closed = 1;
nodes = (
(1019,485,o),
(1020,479,o),
(1021,476,c),
(1020,477,o),
(1022,483,o),
(1021,484,cs)
);
},
{
closed = 1;
nodes = (
(63,78,o),
(48,81,o),
(52,80,cs),
(65,77,o),
(145,62,o),
(158,59,cs),
(128,65,o),
(98,71,o),
(67,77,cs)
);
},
{
closed = 1;
nodes = (
(445,69,o),
(444,70,o),
(444,69,c),
(444,69,o),
(445,69,o),
(446,69,c)
);
},
{
closed = 1;
nodes = (
(198,49,o),
(238,39,o),
(277,30,c),
(262,35,o),
(175,55,o),
(159,59,cs)
);
}
);
width = 1042;
}
);
note = W;
unicode = (87,119);
},
{
glyphname = X;
layers = (
{
layerId = m01;
shapes = (
{
closed = 1;
nodes = (
(337,6,o),
(395,88,o),
(456,165,c),
(458,169,o),
(461,167,o),
(464,165,cs),
(472,158,o),
(514,119,o),
(521,113,cs),
(588,56,o),
(658,0,o),
(735,-43,c),
(770,-32,o),
(984,33,o),
(1019,45,c),
(1020,45,o),
(1022,45,o),
(1022,46,c),
(1023,48,o),
(1020,48,o),
(1021,49,c),
(1022,49,o),
(1023,46,o),
(1024,46,c),
(1033,49,o),
(1042,52,o),
(1051,55,c),
(999,142,o),
(947,229,o),
(898,317,cs),
(879,351,o),
(862,386,o),
(849,422,c),
(814,380,o),
(779,337,o),
(752,290,c),
(743,294,o),
(702,326,o),
(694,333,cs),
(645,372,o),
(601,417,o),
(557,462,cs),
(486,534,o),
(423,615,o),
(365,697,cs),
(363,700,o),
(359,696,o),
(356,695,cs),
(325,685,o),
(151,615,o),
(121,603,cs),
(118,602,o),
(114,599,o),
(113,596,cs),
(98,540,o),
(83,484,o),
(68,428,c),
(86,429,o),
(187,432,o),
(205,433,cs),
(207,433,o),
(210,430,o),
(212,428,cs),
(250,381,o),
(291,337,o),
(332,293,c),
(310,264,o),
(289,233,o),
(270,201,cs),
(268,197,o),
(264,199,o),
(261,201,cs),
(237,214,o),
(113,298,o),
(90,313,cs),
(86,316,o),
(86,316,o),
(81,312,cs),
(53,285,o),
(25,258,o),
(-3,232,cs),
(-6,229,o),
(-7,226,o),
(-5,223,cs),
(64,117,o),
(135,11,o),
(215,-87,cs),
(217,-90,o),
(220,-93,o),
(224,-92,c),
(249,-90,o),
(274,-88,o),
(299,-85,c)
);
},
{
closed = 1;
nodes = (
(849,537,o),
(885,541,o),
(919,544,c),
(921,558,o),
(919,573,o),
(926,585,c),
(894,599,o),
(702,680,o),
(670,694,c),
(663,687,o),
(657,679,o),
(651,670,cs),
(648,665,o),
(647,659,o),
(642,655,cs),
(611,625,o),
(581,592,o),
(553,558,cs),
(550,554,o),
(550,553,o),
(554,549,c),
(592,501,o),
(633,456,o),
(679,417,c),
(718,460,o),
(762,504,o),
(816,524,cs)
);
},
{
closed = 1;
nodes = (
(913,690,o),
(909,691,o),
(908,691,cs),
(910,691,o),
(912,690,o),
(914,690,cs)
);
},
{
closed = 1;
nodes = (
(859,556,o),
(857,554,o),
(857,553,c),
(856,553,o),
(856,555,o),
(857,555,c)
);
},
{
closed = 1;
nodes = (
(821,528,o),
(822,527,o),
(823,527,c),
(822,527,o),
(821,528,o),
(820,528,c)
);
},
{
closed = 1;
nodes = (
(109,338,o),
(109,337,o),
(108,337,c),
(109,337,o),
(109,337,o),
(110,338,c)
);
},
{
closed = 1;
nodes = (
(119,273,o),
(123,272,o),
(119,273,cs),
(116,274,o),
(112,276,o),
(116,275,c)
);
},
{
closed = 1;
nodes = (
(645,-66,o),
(647,-68,o),
(646,-69,c),
(646,-69,o),
(647,-69,o),
(648,-69,c),
(647,-70,o),
(645,-67,o),
(644,-67,c)
);
}
);
width = 1041;
}
);
note = X;
unicode = (88,120);
},
{
glyphname = Y;
layers = (
{
layerId = m01;
shapes = (
{
closed = 1;
nodes = (
(392,573,o),
(353,603,o),
(342,611,cs),
(331,620,o),
(280,664,o),
(267,670,c),
(252,653,o),
(237,636,o),
(222,619,c),
(221,616,o),
(217,614,o),
(219,612,cs),
(236,595,o),
(339,514,o),
(357,499,c),
(362,507,o),
(392,553,o),
(398,561,c)
);
},
{
closed = 1;
nodes = (
(319,-122,o),
(402,-81,o),
(416,-75,cs),
(522,-27,o),
(630,18,o),
(741,49,cs),
(815,71,o),
(892,84,o),
(968,94,c),
(975,107,o),
(981,120,o),
(987,133,c),
(940,182,o),
(726,402,o),
(694,462,cs),
(691,468,o),
(689,478,o),
(693,484,cs),
(701,500,o),
(761,549,o),
(774,561,c),
(766,575,o),
(715,652,o),
(706,665,c),
(648,651,o),
(590,638,o),
(531,627,cs),
(501,621,o),
(461,617,o),
(466,587,cs),
(468,577,o),
(471,516,o),
(472,505,cs),
(482,423,o),
(493,341,o),
(509,260,c),
(477,254,o),
(303,240,o),
(271,237,c),
(290,264,o),
(380,392,o),
(393,423,c),
(317,491,o),
(238,556,o),
(152,611,cs),
(145,616,o),
(100,643,o),
(93,648,c),
(70,622,o),
(47,597,o),
(24,571,cs),
(23,570,o),
(19,567,o),
(20,565,cs),
(48,526,o),
(80,490,o),
(111,453,c),
(78,412,o),
(44,371,o),
(10,330,c),
(9,328,o),
(8,322,o),
(8,321,c),
(35,281,o),
(73,249,o),
(110,219,cs),
(148,189,o),
(189,163,o),
(229,135,c),
(328,155,o),
(428,168,o),
(528,172,c),
(530,163,o),
(532,153,o),
(534,143,cs),
(534,142,o),
(531,142,o),
(532,142,c),
(537,114,o),
(542,86,o),
(547,59,c),
(484,46,o),
(421,34,o),
(359,18,cs),
(363,19,o),
(369,25,o),
(370,30,c),
(382,65,o),
(394,99,o),
(406,134,c),
(292,121,o),
(180,94,o),
(70,66,c),
(39,33,o),
(11,-1,o),
(-24,-30,cs),
(-28,-34,o),
(-35,-42,o),
(-31,-46,cs),
(21,-108,o),
(74,-170,o),
(130,-230,c),
(186,-193,o),
(246,-161,o),
(305,-130,cs)
);
},
{
closed = 1;
nodes = (
(3,606,o),
(3,606,o),
(3,606,c),
(3,606,o),
(3,606,o),
(3,606,c)
);
},
{
closed = 1;
nodes = (
(185,126,o),
(186,126,o),
(186,126,c),
(186,126,o),
(185,126,o),
(185,125,c)
);
},
{
closed = 1;
nodes = (
(104,-175,o),
(105,-175,o),
(104,-175,c),
(104,-175,o),
(105,-175,o),
(105,-175,c)
);
}
);
width = 978;
}
);
note = Y;
unicode = (89,121,221,253,255,376);
},
{
glyphname = Z;
layers = (
{
layerId = m01;
shapes = (
{
closed = 1;
nodes = (
(813,55,o),
(828,63,o),
(828,69,cs),
(826,110,o),
(825,152,o),
(823,193,cs),
(823,196,o),
(822,199,o),
(819,200,c),
(771,208,o),
(723,217,o),
(675,218,cs),
(570,220,o),
(462,199,o),
(366,156,c),
(370,160,o),
(391,182,o),
(396,186,cs),
(479,245,o),
(574,288,o),
(667,331,cs),
(676,336,o),
(686,340,o),
(697,344,c),
(714,411,o),
(732,479,o),
(749,547,c),
(717,555,o),
(611,522,o),
(580,511,c),
(584,529,o),
(600,623,o),
(602,640,c),
(558,634,o),
(514,623,o),
(469,618,cs),
(464,617,o),
(458,619,o),
(453,618,cs),
(354,606,o),
(254,597,o),
(154,597,c),
(152,560,o),
(136,339,o),
(135,302,c),
(197,301,o),
(260,305,o),
(322,312,c),
(293,294,o),
(265,276,o),
(237,257,cs),
(212,240,o),
(185,225,o),
(160,208,cs),
(129,188,o),
(100,166,o),
(72,144,c),
(75,61,o),
(78,-21,o),
(81,-103,cs),
(81,-107,o),
(80,-111,o),
(83,-111,cs),
(89,-112,o),
(95,-109,o),
(100,-106,cs),
(179,-69,o),
(259,-31,o),
(344,-9,cs),
(400,5,o),
(458,10,o),
(516,9,cs),
(526,9,o),
(537,-5,o),
(541,-15,cs),
(557,-54,o),
(541,-103,o),
(523,-142,c),
(533,-145,o),
(576,-158,o),
(585,-158,cs),
(590,-158,o),
(596,-161,o),
(599,-158,cs),
(669,-88,o),
(738,-19,o),
(808,50,cs)
);
},
{
closed = 1;
nodes = (
(90,599,o),
(55,604,o),
(22,613,c),
(20,614,o),
(13,616,o),
(10,616,cs),
(11,616,o),
(8,617,o),
(7,617,c),
(6,616,o),
(8,614,o),
(8,613,cs),
(8,609,o),
(8,597,o),
(10,594,cs),
(11,593,o),
(13,593,o),
(14,592,c),
(12,592,o),
(11,592,o),
(9,592,c),
(12,554,o),
(30,344,o),
(37,306,c),
(59,304,o),
(82,303,o),
(104,302,c),
(107,338,o),
(122,561,o),
(124,598,c)
);
},
{
closed = 1;
nodes = (
(675,591,o),
(674,602,o),
(674,593,c),
(673,590,o),
(672,580,o),
(673,583,cs)
);
},
{
closed = 1;
nodes = (
(56,537,o),
(57,538,o),
(57,537,c),
(57,537,o),
(55,537,o),
(55,537,c)
);
},
{
closed = 1;
nodes = (
(72,463,o),
(73,462,o),
(74,462,c),
(74,462,o),
(72,460,o),
(71,460,c),
(71,459,o),
(71,464,o),
(71,464,c)
);
}
);
width = 828;
}
);
note = Z;
unicode = (90,122);
},
{
glyphname = underscore;
layers = (
{
layerId = m01;
shapes = (
{
closed = 1;
nodes = (
(-14,-62,o),
(-10,-65,o),
(-9,-65,c),
(-1,-49,o),
(23,-45,o),
(41,-43,cs),
(97,-39,o),
(389,-45,o),
(445,-48,cs),
(449,-48,o),
(453,-48,o),
(456,-45,cs),
(506,4,o),
(557,54,o),
(607,103,c),
(611,106,o),
(628,125,o),
(631,128,cs),
(633,130,o),
(628,130,o),
(626,131,c),
(611,134,o),
(596,137,o),
(582,140,c),
(563,121,o),
(543,104,o),
(522,86,c),
(486,91,o),
(284,98,o),
(248,99,cs),
(195,102,o),
(141,99,o),
(88,102,c),
(68,78,o),
(-51,-71,o),
(-70,-96,c),
(-59,-98,o),
(-47,-100,o),
(-36,-101,c),
(-33,-97,o),
(-17,-67,o),
(-14,-62,c)
);
}
);
width = 637;
}
);
note = underscore;
unicode = 95;
},
{
glyphname = asterisk;
lastChange = "2023-11-19 19:05:58 +0000";
layers = (
{
layerId = m01;
shapes = (
{
closed = 1;
nodes = (
(518,349,o),
(517,346,o),
(515,342,c),
(515,341,o),
(515,340,o),
(516,339,c),
(527,321,o),
(539,303,o),
(556,289,cs),
(562,285,o),
(561,279,o),
(552,276,cs),
(542,271,o),
(530,266,o),
(518,262,cs),
(514,261,o),
(509,258,o),
(503,256,c),
(506,235,o),
(509,213,o),
(511,193,cs),
(516,158,o),
(520,122,o),
(525,87,cs),
(530,61,o),
(533,35,o),
(537,10,cs),
(541,-7,o),
(542,-24,o),
(537,-42,c),
(535,-41,o),
(533,-40,o),
(531,-39,c),
(493,-1,ls),
(450,45,o),
(407,94,o),
(363,141,cs),
(352,153,o),
(340,163,o),
(328,176,c),
(324,173,o),
(320,172,o),
(315,170,cs),
(92,68,l),
(83,65,o),
(74,60,o),
(64,57,cs),
(61,56,o),
(56,56,o),
(53,58,c),
(52,60,o),
(52,66,o),
(53,68,cs),
(81,119,o),
(95,175,o),
(116,228,c),
(122,248,o),
(129,269,o),
(136,288,c),
(138,291,o),
(138,296,o),
(139,300,c),
(93,328,o),
(45,353,o),
(0,386,c),
(62,395,o),
(122,404,o),
(181,412,c),
(192,439,o),
(202,463,o),
(212,486,cs),
(219,505,o),
(227,522,o),
(235,539,c),
(246,553,l),
(262,531,o),
(276,510,o),
(290,489,c),
(291,489,o),
(291,490,o),
(293,490,c),
(291,523,o),
(290,556,o),
(290,588,cs),
(290,621,o),
(290,654,o),
(291,688,c),
(295,688,l),
(300,679,o),
(307,671,o),
(312,662,cs),
(335,626,o),
(356,590,o),
(379,554,cs),
(398,524,o),
(420,493,o),
(440,463,cs),
(445,456,o),
(449,456,o),
(456,457,cs),
(479,460,o),
(501,464,o),
(525,467,cs),
(570,473,o),
(617,480,o),
(663,485,cs),
(676,486,o),
(688,485,o),
(702,485,c),
(702,484,o),
(702,483,o),
(703,481,c),
(699,478,o),
(694,476,o),
(691,474,cs),
(590,417,o),
(490,361,o),
(390,303,cs),
(337,272,o),
(285,239,o),
(232,207,cs),
(219,198,o),
(206,189,o),
(196,177,cs),
(189,168,o),
(180,159,o),
(173,150,c),
(290,214,o),
(403,287,o),
(518,355,c),
(519,354,o),
(519,353,o),
(520,351,c)
);
}
);
width = 703;
}
);
unicode = 42;
},
{
glyphname = numbersign;
lastChange = "2023-11-19 19:06:46 +0000";
layers = (
{
layerId = m01;
shapes = (
{
closed = 1;
nodes = (
(57,415,l),
(67,416,o),
(79,416,o),
(89,418,cs),
(157,420,o),
(226,423,o),
(294,427,cs),
(369,431,o),
(442,436,o),
(517,441,cs),
(557,445,o),
(597,450,o),
(637,454,cs),
(649,455,o),
(660,456,o),
(673,456,c),
(676,415,o),
(665,375,o),
(665,335,c),
(662,334,o),
(659,334,o),
(656,334,cs),
(449,337,o),
(242,322,o),
(37,308,cs),
(36,308,o),
(35,309,o),
(34,309,c)
);
},
{
closed = 1;
nodes = (
(503,58,o),
(481,52,o),
(458,46,cs),
(414,36,o),
(371,24,o),
(328,14,cs),
(319,13,o),
(311,9,o),
(300,14,c),
(312,113,o),
(339,210,o),
(361,308,c),
(420,309,o),
(480,311,o),
(539,312,c),
(527,63,l)
);
},
{
closed = 1;
nodes = (
(348,589,o),
(328,521,o),
(306,453,c),
(260,447,o),
(215,444,o),
(169,438,c),
(173,469,ls),
(181,516,o),
(188,564,o),
(195,611,c),
(196,615,o),
(196,619,o),
(196,623,cs),
(195,638,o),
(199,637,o),
(209,640,cs),
(307,655,ls),
(328,658,o),
(348,658,o),
(371,660,c)
);
},
{
closed = 1;
nodes = (
(141,88,ls),
(134,88,o),
(128,88,o),
(121,89,cs),
(115,90,o),
(112,94,o),
(113,102,cs),
(133,241,ls),
(135,260,o),
(139,279,o),
(143,299,c),
(183,302,o),
(222,303,o),
(263,306,c),
(245,233,o),
(228,162,o),
(210,92,c)
);
},
{
closed = 1;
nodes = (
(472,605,o),
(513,609,o),
(556,613,c),
(553,565,o),
(552,518,o),
(549,471,c),
(498,467,o),
(447,464,o),
(395,460,c),
(407,507,o),
(419,553,o),
(431,600,c)
);
},
{
closed = 1;
nodes = (
(549,155,o),
(551,190,o),
(553,226,c),
(685,222,l),
(685,214,o),
(685,208,o),
(683,201,cs),
(676,134,l),
(674,130,o),
(674,125,o),
(673,120,cs),
(671,110,o),
(671,110,o),
(659,111,cs),
(654,111,o),
(649,110,o),
(643,110,cs),
(613,112,o),
(582,115,o),
(548,116,c)
);
},
{
closed = 1;
nodes = (
(15,236,l),
(117,236,l),
(112,208,o),
(107,182,o),
(103,155,c),
(68,157,o),
(35,160,o),
(0,161,c)
);
},
{
closed = 1;
nodes = (
(250,175,o),
(258,205,o),
(266,235,c),
(285,235,o),
(303,233,o),
(324,233,c),
(304,139,l),
(284,141,o),
(263,142,o),
(241,144,c)
);
}
);
width = 685;
}
);
unicode = 35;
},
{
glyphname = slash;
lastChange = "2023-11-19 19:06:32 +0000";
layers = (
{
layerId = m01;
shapes = (
{
closed = 1;
nodes = (
(3,-70,ls),
(5,-65,o),
(5,-60,o),
(7,-55,cs),
(103,212,ls),
(152,347,o),
(200,481,o),
(249,615,cs),
(256,635,o),
(265,654,o),
(273,673,cs),
(278,682,o),
(287,687,o),
(297,686,cs),
(398,677,ls),
(417,675,o),
(436,673,o),
(458,670,c),
(454,663,o),
(451,657,o),
(448,651,cs),
(225,204,ls),
(182,117,o),
(141,30,o),
(99,-57,cs),
(94,-69,o),
(87,-75,o),
(75,-75,cs),
(53,-76,o),
(32,-77,o),
(10,-79,cs),
(7,-79,o),
(3,-80,o),
(0,-81,c)
);
},
{
closed = 1;
nodes = (
(248,179,o),
(362,423,o),
(476,667,c),
(496,663,o),
(518,659,o),
(541,655,c),
(539,650,o),
(539,646,o),
(537,642,cs),
(489,532,o),
(451,418,o),
(410,306,cs),
(370,197,o),
(329,89,o),
(281,-17,cs),
(280,-20,o),
(277,-23,o),
(278,-25,c),
(282,-44,o),
(266,-49,o),
(256,-51,cs),
(217,-57,o),
(176,-61,o),
(132,-67,c)
);
}
);
width = 541;
}
);
unicode = 47;
},
{
glyphname = at;
lastChange = "2023-11-19 19:06:55 +0000";
layers = (
{
layerId = m01;
shapes = (
{
closed = 1;
nodes = (
(365,507,o),
(296,479,o),
(241,408,c),
(259,414,o),
(276,423,o),
(292,428,cs),
(307,435,o),
(325,438,o),
(345,438,c),
(347,413,o),
(339,392,o),
(334,369,c),
(321,367,o),
(309,366,o),
(296,363,cs),
(282,361,o),
(267,355,o),
(253,350,cs),
(230,340,o),
(218,319,o),
(219,294,cs),
(220,264,o),
(224,234,o),
(245,209,cs),
(255,196,o),
(266,184,o),
(280,177,cs),
(284,174,o),
(288,171,o),
(289,167,cs),
(327,90,l),
(324,90,o),
(321,87,o),
(318,87,cs),
(231,76,o),
(151,93,o),
(77,137,cs),
(63,144,o),
(52,155,o),
(42,169,cs),
(19,202,o),
(5,240,o),
(1,282,cs),
(-2,305,o),
(4,329,o),
(9,352,cs),
(34,452,o),
(95,522,o),
(184,570,cs),
(201,579,o),
(218,586,o),
(235,594,c),
(229,606,o),
(219,616,o),
(212,627,cs),
(204,637,ls),
(195,646,o),
(197,653,o),
(209,656,cs),
(220,660,o),
(231,663,o),
(242,666,cs),
(289,674,o),
(335,674,o),
(382,668,cs),
(433,663,o),
(483,651,o),
(528,628,c),
(534,624,o),
(541,622,o),
(546,619,c),
(516,572,o),
(484,526,o),
(452,479,c)
);
},
{
closed = 1;
nodes = (
(393,115,o),
(400,118,o),
(407,119,cs),
(463,129,o),
(506,158,o),
(535,205,cs),
(546,223,o),
(554,243,o),
(559,263,cs),
(560,269,o),
(564,274,o),
(570,278,cs),
(630,319,o),
(691,361,o),
(752,401,cs),
(755,402,o),
(756,402,o),
(759,405,c),
(760,396,o),
(763,391,o),
(763,385,cs),
(770,303,o),
(752,225,o),
(705,155,c),
(695,145,ls),
(636,87,o),
(570,42,o),
(488,17,cs),
(465,9,o),
(440,3,o),
(415,6,c),
(386,57,o),
(358,108,o),
(329,160,c),
(371,156,l),
(374,152,o),
(376,147,o),
(380,138,c),
(409,162,o),
(436,187,o),
(436,229,c),
(432,227,o),
(429,225,o),
(427,223,c),
(403,200,o),
(375,196,o),
(343,206,cs),
(317,216,o),
(296,249,o),
(300,278,cs),
(302,285,o),
(306,296,o),
(311,301,c),
(342,341,o),
(401,348,o),
(437,314,cs),
(448,304,o),
(455,287,o),
(462,274,cs),
(473,250,o),
(474,225,o),
(466,202,cs),
(461,185,o),
(452,171,o),
(440,160,cs),
(426,151,o),
(412,142,o),
(400,134,cs),
(396,131,o),
(391,129,o),
(386,126,c)
);
},
{
closed = 1;
nodes = (
(629,572,o),
(687,483,o),
(702,395,c),
(564,301,l),
(564,376,o),
(534,431,o),
(470,471,c),
(499,517,o),
(531,562,o),
(561,608,c)
);
}
);
width = 764;
}
);
unicode = 64;
},
{
glyphname = ampersand;
lastChange = "2023-11-19 19:07:13 +0000";
layers = (
{
layerId = m01;
shapes = (
{
closed = 1;
nodes = (
(189,445,o),
(184,479,o),
(179,512,c),
(154,520,o),
(154,520,o),
(152,547,c),
(147,599,o),
(158,649,o),
(179,696,c),
(181,701,o),
(185,705,o),
(188,710,c),
(204,701,o),
(203,684,o),
(211,670,c),
(214,675,o),
(216,678,o),
(219,682,c),
(242,718,o),
(275,741,o),
(309,764,c),
(318,769,o),
(326,766,o),
(333,760,c),
(341,755,o),
(347,747,o),
(354,740,c),
(377,720,o),
(398,697,o),
(422,678,c),
(463,645,o),
(510,629,o),
(562,629,c),
(584,630,o),
(604,629,o),
(625,629,c),
(622,625,o),
(619,620,o),
(615,616,c),
(576,560,o),
(536,505,o),
(498,450,c),
(486,432,o),
(475,414,o),
(466,395,c),
(462,388,o),
(456,384,o),
(447,383,c),
(431,381,o),
(415,384,o),
(401,390,c),
(354,409,o),
(318,442,o),
(290,482,c),
(286,488,o),
(284,493,o),
(279,501,c),
(277,494,o),
(276,490,o),
(275,487,c),
(273,464,o),
(275,444,o),
(283,423,c),
(292,401,o),
(308,386,o),
(329,378,c),
(349,372,o),
(368,367,o),
(387,362,c),
(392,360,o),
(395,360,o),
(401,358,c),
(386,334,o),
(371,312,o),
(355,287,c),
(350,289,o),
(344,293,o),
(338,295,c),
(315,307,o),
(292,320,o),
(267,331,c),
(257,336,o),
(246,339,o),
(234,342,c),
(220,345,o),
(213,340,o),
(208,325,c),
(204,310,o),
(206,293,o),
(212,277,c),
(230,220,o),
(271,189,o),
(327,178,c),
(346,174,o),
(368,175,o),
(390,174,c),
(402,117,o),
(412,59,o),
(410,-1,c),
(309,-64,o),
(204,-55,o),
(119,13,c),
(60,63,o),
(27,129,o),
(10,203,c),
(-2,247,o),
(-4,293,o),
(6,338,c),
(10,354,o),
(17,369,o),
(23,386,c),
(25,393,o),
(32,395,o),
(38,397,c),
(86,410,o),
(136,416,o),
(187,412,c),
(191,412,o),
(196,412,o),
(204,411,c)
);
},
{
closed = 1;
nodes = (
(407,271,o),
(420,277,o),
(432,281,c),
(445,285,o),
(449,282,o),
(455,271,c),
(464,255,o),
(471,239,o),
(479,224,c),
(481,218,o),
(484,214,o),
(488,208,c),
(525,224,o),
(559,245,o),
(592,271,c),
(592,116,l),
(576,108,o),
(562,102,o),
(546,95,c),
(572,45,o),
(596,-2,o),
(622,-52,c),
(590,-60,o),
(560,-68,o),
(529,-75,c),
(499,-81,o),
(469,-92,o),
(436,-95,c),
(440,28,o),
(422,147,o),
(393,265,c)
);
},
{
closed = 1;
nodes = (
(668,577,o),
(679,564,o),
(689,549,c),
(636,491,o),
(584,435,o),
(529,376,c),
(523,388,o),
(517,398,o),
(511,408,c),
(555,473,o),
(608,530,o),
(658,592,c)
);
}
);
width = 689;
}
);
unicode = 38;
},
{
glyphname = dollar;
lastChange = "2023-11-19 19:07:31 +0000";
layers = (
{
layerId = m01;
shapes = (
{
closed = 1;
nodes = (
(165,326,o),
(248,361,o),
(348,348,c),
(343,351,o),
(342,352,o),
(340,354,c),
(311,371,o),
(280,377,o),
(247,370,cs),
(214,366,o),
(185,354,o),
(156,341,cs),
(129,329,o),
(103,316,o),
(78,304,cs),
(58,294,o),
(39,282,o),
(20,270,c),
(14,273,o),
(11,281,o),
(9,288,cs),
(6,309,o),
(1,332,o),
(1,352,cs),
(-4,398,o),
(8,440,o),
(33,478,cs),
(61,519,o),
(99,552,o),
(144,574,c),
(157,582,l),
(157,582,o),
(157,582,o),
(159,582,c),
(146,657,l),
(170,672,o),
(195,686,o),
(223,701,c),
(226,667,o),
(230,636,o),
(233,604,c),
(239,604,o),
(242,604,o),
(249,604,c),
(249,632,ls),
(248,647,o),
(248,658,o),
(248,672,cs),
(248,676,o),
(247,680,o),
(251,683,cs),
(274,696,o),
(295,711,o),
(320,724,c),
(321,718,o),
(323,714,o),
(323,710,cs),
(323,679,o),
(321,648,o),
(321,619,cs),
(321,607,l),
(371,603,o),
(419,591,o),
(463,569,c),
(415,439,l),
(371,439,o),
(331,449,o),
(292,462,cs),
(268,471,o),
(248,480,o),
(227,490,cs),
(220,493,o),
(213,499,o),
(207,503,c),
(182,486,o),
(129,404,o),
(126,373,c),
(131,377,o),
(137,379,o),
(140,382,c),
(159,395,o),
(181,404,o),
(203,410,cs),
(222,414,o),
(241,420,o),
(260,424,cs),
(280,427,o),
(301,429,o),
(321,426,cs),
(393,414,o),
(456,385,o),
(509,333,cs),
(535,309,o),
(555,278,o),
(570,244,c),
(572,238,o),
(572,232,o),
(569,225,c),
(539,172,o),
(509,120,o),
(484,64,c),
(484,63,o),
(484,63,o),
(482,61,c),
(462,65,o),
(443,68,o),
(419,73,c),
(419,67,o),
(419,65,o),
(419,61,cs),
(419,-6,l),
(421,-15,o),
(416,-21,o),
(408,-25,cs),
(390,-36,o),
(371,-46,o),
(353,-57,cs),
(350,-59,o),
(349,-60,o),
(345,-62,c),
(339,-18,o),
(333,26,o),
(329,70,c),
(323,68,o),
(314,68,o),
(305,67,c),
(309,20,ls),
(311,4,o),
(311,-11,o),
(311,-27,cs),
(311,-33,o),
(309,-37,o),
(305,-40,cs),
(286,-55,o),
(266,-69,o),
(245,-84,cs),
(244,-85,o),
(244,-84,o),
(241,-85,c),
(230,-41,o),
(230,5,o),
(222,51,c),
(210,48,o),
(200,44,o),
(187,39,c),
(107,288,l)
);
},
{
closed = 1;
nodes = (
(146,10,o),
(131,0,o),
(116,-12,c),
(115,-8,o),
(113,-6,o),
(112,-3,c),
(97,67,o),
(68,131,o),
(37,194,c),
(34,205,o),
(33,212,o),
(40,219,cs),
(47,229,o),
(55,240,o),
(62,250,cs),
(72,262,l),
(85,229,o),
(100,197,o),
(112,167,cs),
(138,90,ls),
(146,67,o),
(153,45,o),
(159,20,c)
);
},
{
closed = 1;
nodes = (
(463,429,o),
(460,431,o),
(457,434,c),
(462,471,o),
(520,594,o),
(544,617,c),
(563,604,o),
(582,591,o),
(601,579,c),
(592,562,o),
(488,440,o),
(468,426,c)
);
},
{
closed = 1;
nodes = (
(550,106,o),
(553,67,o),
(553,24,c),
(504,54,l),
(516,85,o),
(529,117,o),
(545,146,c),
(548,146,l)
);
}
);
width = 601;
}
);
unicode = 36;
},
{
glyphname = percent;
lastChange = "2023-11-19 19:06:11 +0000";
layers = (
{
layerId = m01;
shapes = (
{
closed = 1;
nodes = (
(464,247,o),
(452,218,o),
(439,187,c),
(401,187,ls),
(399,187,o),
(396,186,o),
(394,185,c),
(388,176,o),
(379,169,o),
(375,159,cs),
(362,127,o),
(388,92,o),
(422,92,c),
(427,93,o),
(432,92,o),
(436,92,cs),
(458,93,o),
(471,106,o),
(471,128,cs),
(472,144,o),
(475,160,o),
(462,175,c),
(477,208,o),
(492,242,o),
(508,276,c),
(521,273,l),
(587,251,o),
(631,185,o),
(625,116,cs),
(620,44,o),
(565,-14,o),
(496,-25,cs),
(405,-40,o),
(314,30,o),
(317,133,cs),
(320,206,o),
(376,268,o),
(448,277,cs),
(456,278,o),
(465,277,o),
(476,277,c)
);
},
{
closed = 1;
nodes = (
(46,381,o),
(81,399,o),
(116,416,c),
(121,413,o),
(125,410,o),
(129,407,c),
(154,393,o),
(184,400,o),
(199,423,cs),
(210,440,o),
(210,458,o),
(197,472,cs),
(183,487,o),
(167,495,o),
(146,492,cs),
(124,488,o),
(108,470,o),
(106,448,cs),
(106,437,l),
(73,419,o),
(39,401,o),
(5,383,c),
(-2,405,o),
(-1,425,o),
(4,444,cs),
(17,505,o),
(68,546,o),
(130,553,cs),
(162,557,o),
(190,550,o),
(217,534,cs),
(243,518,o),
(261,496,o),
(273,468,cs),
(301,398,o),
(270,318,o),
(202,286,cs),
(134,254,o),
(53,281,o),
(18,346,cs),
(15,351,o),
(13,356,o),
(10,362,c)
);
},
{
closed = 1;
nodes = (
(202,163,o),
(296,334,o),
(390,506,c),
(471,494,l),
(468,488,o),
(465,484,o),
(463,479,c),
(194,14,ls),
(190,7,o),
(186,3,o),
(177,1,cs),
(154,-2,o),
(131,-6,o),
(107,-10,c)
);
},
{
closed = 1;
nodes = (
(529,587,ls),
(525,579,o),
(520,576,o),
(511,577,cs),
(485,579,o),
(458,581,o),
(430,583,c),
(452,626,l),
(455,630,o),
(456,635,o),
(459,642,c),
(491,640,o),
(525,648,o),
(561,644,c)
);
},
{
closed = 1;
nodes = (
(449,560,o),
(478,558,o),
(510,555,c),
(499,539,o),
(490,524,o),
(481,509,c),
(453,512,o),
(425,516,o),
(396,519,c),
(404,534,o),
(411,547,o),
(418,562,c)
);
},
{
closed = 1;
nodes = (
(81,-52,o),
(86,-43,o),
(92,-33,cs),
(94,-30,o),
(97,-28,o),
(100,-27,cs),
(181,-11,l),
(175,-23,o),
(170,-32,o),
(165,-41,c),
(164,-44,o),
(160,-45,o),
(158,-46,c),
(74,-65,l)
);
}
